<svg xmlns="http://www.w3.org/2000/svg" viewBox="0 0 1235.2 1270.96"><defs><style>.cls-1{fill:#1d1d1b;}.cls-2,.cls-3{fill:none;stroke-miterlimit:10;}.cls-2{stroke:#ad0f0a;}.cls-3{stroke:#e20613;}</style></defs><title>guildpact_clock_laser</title><g id="engrave"><path class="cls-1" d="M1120.13,667.63c-56.88-41.24-136.3-29.19-178.56,26.52q2.07-11.52,3.32-23.32A140.49,140.49,0,0,1,992.35,640a4.82,4.82,0,0,0,0-9,140.83,140.83,0,0,1-47.5-30.87q-1.27-11.85-3.37-23.43a129.59,129.59,0,1,0-26.17-81.5q-5.07-10.71-10.87-21A143.19,143.19,0,0,1,928,416.92a4.81,4.81,0,0,0-5.33-7.37,140.23,140.23,0,0,1-61.65,4.6q-7.93-8.73-16.49-16.88a129.55,129.55,0,1,0-69.42-50.74Q764.77,340.88,754,336a143.36,143.36,0,0,1-14.56-60.32,4.8,4.8,0,0,0-8.63-2.83A143.09,143.09,0,0,1,683.14,313q-11.65-2.35-23.58-3.87A131,131,0,0,0,676,302.17,128.51,128.51,0,0,0,740.36,227C762.53,159.23,725.5,86,657.81,63.8S517,78.68,494.84,146.48a129.4,129.4,0,0,0,81.07,162.7q-12,1.53-23.65,3.93a142.29,142.29,0,0,1-47.85-40.33,4.8,4.8,0,0,0-8.63,2.83,143.52,143.52,0,0,1-14.85,60.94q-10.86,5-21.29,10.79a132,132,0,0,0,9.28-15.54A129.28,129.28,0,0,0,313.48,150.38c-67.69,22.21-104.72,95.43-82.55,163.23a129,129,0,0,0,161.22,83.21q-8.72,8.26-16.82,17.16a142.11,142.11,0,0,1-62.78-4.43,4.81,4.81,0,0,0-5.33,7.37A143.32,143.32,0,0,1,331,475.56q-5.92,10.59-11.06,21.66A129.34,129.34,0,0,0,266.6,393.8C208.91,352,128,364.93,86.21,422.72S57.39,561.55,115.08,603.39A129.12,129.12,0,0,0,295,575q-2.22,11.88-3.57,24A140.52,140.52,0,0,1,242.85,631a4.82,4.82,0,0,0,0,9,140.54,140.54,0,0,1,48.57,31.91q1.33,12.12,3.53,24C253,638.67,172.54,626,115.08,667.63,57.39,709.47,44.44,790.52,86.21,848.3A129.11,129.11,0,0,0,320,774.11q5.12,11,11,21.59a143.43,143.43,0,0,1-23.75,58.41,4.8,4.8,0,0,0,5.33,7.36A142.29,142.29,0,0,1,375,857q8,8.85,16.68,17.09c-67.06-20.7-138.82,16.28-160.75,83.34-22.17,67.8,14.86,141,82.55,163.23A129.29,129.29,0,0,0,459.85,924.1q10.41,5.76,21.27,10.77a143.55,143.55,0,0,1,14.66,60.54,4.8,4.8,0,0,0,8.63,2.83,142.47,142.47,0,0,1,47.41-40.11q11.59,2.39,23.47,3.93a129.34,129.34,0,0,0,82.52,245.16c67.69-22.2,104.72-95.43,82.55-163.22a129.11,129.11,0,0,0-80.26-81.82q11.86-1.53,23.46-3.89a143.17,143.17,0,0,1,47.24,39.92,4.77,4.77,0,0,0,3.82,1.91,4.81,4.81,0,0,0,4.81-4.74,143.34,143.34,0,0,1,14.38-59.92q10.68-4.87,21-10.48a129.19,129.19,0,1,0,229.51,32.43C982.5,890.83,911.61,853.91,845,873.64q8.47-8.11,16.38-16.82a140.41,140.41,0,0,1,61.32,4.65,4.81,4.81,0,0,0,5.33-7.36A143.43,143.43,0,0,1,904.48,797q5.74-10.18,10.78-20.82a132.84,132.84,0,0,0,1.56,16.67,129.3,129.3,0,0,0,127.27,109,131.64,131.64,0,0,0,20.69-1.65A128.29,128.29,0,0,0,1149,848.3C1190.77,790.52,1177.82,709.47,1120.13,667.63Zm-999.42-72C67.31,556.87,55.33,481.85,94,428.36a118.74,118.74,0,0,1,78-48,120.47,120.47,0,0,1,19.15-1.53A118.57,118.57,0,0,1,261,401.6c53.4,38.73,65.39,113.75,26.72,167.23A119.57,119.57,0,0,1,120.71,595.59ZM261,869.42A119.46,119.46,0,0,1,94,842.66c-38.66-53.49-26.67-128.51,26.72-167.23a119.54,119.54,0,0,1,167,26.76C326.35,755.67,314.36,830.69,261,869.42Zm717.6-233.91a149.24,149.24,0,0,0-32.48,21.15c.44-6.94.68-13.94.68-21s-.25-14.27-.7-21.32A149.69,149.69,0,0,0,978.56,635.51ZM926.3,479.67a119.66,119.66,0,0,1,117.81-100.85,120.38,120.38,0,0,1,19.15,1.53A119.7,119.7,0,1,1,947.52,568.83,121,121,0,0,1,934,544.63q-2.79-9.69-6.16-19.14A119.88,119.88,0,0,1,926.3,479.67Zm-12.88-57.8A153.78,153.78,0,0,0,897.19,462a330.32,330.32,0,0,0-26.87-37.17A151.85,151.85,0,0,0,913.42,421.87ZM767.9,236.06a119.58,119.58,0,1,1,227.24,74.55C974.62,373.36,907,407.69,844.3,387.14a120,120,0,0,1-24.92-11.52q-8-6.21-16.32-11.92A120.05,120.05,0,0,1,767.9,236.06ZM730.54,288.2A153.64,153.64,0,0,0,741,330.36a325.61,325.61,0,0,0-43.9-14.25A153.33,153.33,0,0,0,730.54,288.2ZM580.38,300.55A119.73,119.73,0,1,1,654.82,73C717.47,93.5,751.75,161.28,731.23,224A119.79,119.79,0,0,1,621.1,306.51c-1,0-2,0-3,0s-2.26,0-3.4,0A119.8,119.8,0,0,1,580.38,300.55ZM504.66,288.2a152.71,152.71,0,0,0,33.68,28.09A326.14,326.14,0,0,0,494,330.85,153.81,153.81,0,0,0,504.66,288.2ZM390.9,387.14a119.54,119.54,0,0,1-150.84-76.53c-20.52-62.75,13.75-130.53,76.41-151.08A119.79,119.79,0,0,1,427.3,367.77c-1.91,1.37-3.82,2.76-5.7,4.17A120,120,0,0,1,390.9,387.14Zm-69.11,34.73a152.31,152.31,0,0,0,44.15,2.9,330,330,0,0,0-27.64,38.36A153.62,153.62,0,0,0,321.79,421.87ZM256.65,635.51a149.82,149.82,0,0,0,33.54-22c-.49,7.33-.77,14.73-.77,22.19s.27,14.64.75,21.87A149.84,149.84,0,0,0,256.65,635.51Zm65.14,213.64a153.43,153.43,0,0,0,16.45-41,331,331,0,0,0,27.41,38.12A152.47,152.47,0,0,0,321.79,849.15ZM467.31,1035c-20.52,62.76-88.19,97.1-150.84,76.53s-96.93-88.33-76.41-151.08a119.45,119.45,0,0,1,178.9-63q5.13,3.93,10.42,7.67A120,120,0,0,1,467.31,1035Zm37.35-52.14a153.36,153.36,0,0,0-10.48-42.28A324.21,324.21,0,0,0,538,954.94,152.63,152.63,0,0,0,504.66,982.82Zm167-5.38a119.81,119.81,0,0,1-16.81,220.63c-62.66,20.56-130.32-13.77-150.84-76.52a119.8,119.8,0,0,1,76.4-151.09,120.49,120.49,0,0,1,29.31-5.71q4.18.11,8.4.1,3.85,0,7.68-.09A119.19,119.19,0,0,1,671.63,977.44Zm58.91,5.38a153,153,0,0,0-33.11-27.68A325.9,325.9,0,0,0,740.83,941,154.08,154.08,0,0,0,730.54,982.82ZM844.3,883.88a119.86,119.86,0,1,1-42.61,24.7q10-6.78,19.5-14.27A119.37,119.37,0,0,1,844.3,883.88Zm-28.61,2.51A127.54,127.54,0,0,0,795.76,901a316.86,316.86,0,0,1-170.71,54.16,129,129,0,0,0-15.23,0,316.79,316.79,0,0,1-174.6-57.75,128.24,128.24,0,0,0-10.69-7.85C348.3,831.07,299,739,299,635.66c0-104.52,50.37-197.48,128.07-255.82,2.1-1.46,4.17-3,6.18-4.53a316.93,316.93,0,0,1,181.64-59.17c.94,0,1.88.06,2.82.05.79,0,1.59-.05,2.38-.07a316.93,316.93,0,0,1,177.11,55.23A127.55,127.55,0,0,0,814,383.59a321,321,0,0,1,104.8,145.2,129,129,0,0,0,6,18.75,320.8,320.8,0,0,1,.36,175,128.25,128.25,0,0,0-6.8,21.2A320.93,320.93,0,0,1,815.69,886.39Zm97.72-37.26a149.06,149.06,0,0,0-42.8-3,330.05,330.05,0,0,0,26.64-36.91A153.2,153.2,0,0,0,913.41,849.13Zm227.8-6.47a119.46,119.46,0,0,1-167,26.76,120,120,0,0,1-46.46-123.49q3.5-9.85,6.41-20a119.51,119.51,0,0,1,180.3-50.54C1167.89,714.15,1179.87,789.17,1141.21,842.66Z"/><path class="cls-1" d="M1133.35,649.34a152.92,152.92,0,0,0-23.15-13.83,152.92,152.92,0,0,0,23.15-13.83A151.95,151.95,0,0,0,1012.49,350a151.72,151.72,0,0,0,13.21-29.4c26-79.62-17.45-165.63-97-191.71a151.64,151.64,0,0,0-160.16,42.94A152,152,0,0,0,664.83,42.34a151.66,151.66,0,0,0-191.41,97.11,152.61,152.61,0,0,0-6.82,32.4,151.66,151.66,0,0,0-160.14-42.93C227,155,183.46,241,209.5,320.63A152.32,152.32,0,0,0,222.71,350,151.7,151.7,0,0,0,68,409.47c-49.07,67.87-33.86,163.07,33.9,212.21A152.92,152.92,0,0,0,125,635.51a152.92,152.92,0,0,0-23.15,13.83A151.89,151.89,0,0,0,222.72,921a152.11,152.11,0,0,0-13.22,29.41c-26,79.62,17.45,165.63,97,191.71a151.39,151.39,0,0,0,160.13-43,152,152,0,0,0,151.12,137.14,151.77,151.77,0,0,0,150.88-137.16,151.41,151.41,0,0,0,160.16,43c79.5-26.09,123-112.09,97-191.71A152.2,152.2,0,0,0,1012.48,921a152,152,0,0,0,120.87-271.63Zm26.12,206.56a142.08,142.08,0,0,1-156.2,52.78,2,2,0,0,0-.26,0,4.26,4.26,0,0,0-.49-.1l-.46,0h-.47a3.44,3.44,0,0,0-.45,0,2.73,2.73,0,0,0-.48.1,3.24,3.24,0,0,0-.41.13l-.46.19c-.14.07-.27.15-.4.23a2.15,2.15,0,0,0-.26.14l-.14.12c-.13.1-.24.2-.36.31l-.34.33c-.1.12-.18.24-.27.36s-.2.27-.28.41a3.54,3.54,0,0,0-.19.39,4.89,4.89,0,0,0-.2.48l-.07.15a2,2,0,0,1,0,.26,4.37,4.37,0,0,0-.09.5c0,.16,0,.31,0,.46a3.69,3.69,0,0,0,0,.47,3.62,3.62,0,0,0,.06.46,3.4,3.4,0,0,0,.09.46c0,.15.09.3.14.44s.11.29.18.43.16.29.24.43a1.88,1.88,0,0,0,.14.24,142.74,142.74,0,0,1,18.62,37.34C1041,1028,1000.22,1108.52,925.75,1133a142,142,0,0,1-157.43-49.21c-.05-.07-.12-.13-.18-.2s-.22-.25-.35-.37l-.34-.3-.38-.27-.41-.23-.42-.19c-.15-.06-.3-.1-.45-.15l-.44-.1a4.35,4.35,0,0,0-.52-.06,2.06,2.06,0,0,0-.26,0h-.17a3.58,3.58,0,0,0-.45,0,5.58,5.58,0,0,0-.57.08l-.2.06a4.33,4.33,0,0,0-.74.27l-.05,0a4,4,0,0,0-.79.49h0a5.08,5.08,0,0,0-.68.63l-.07.09a4,4,0,0,0-.45.63l-.12.21a6,6,0,0,0-.26.58,3.58,3.58,0,0,0-.11.35,4.54,4.54,0,0,0-.12.5c0,.16,0,.32-.06.48s0,.19,0,.28a142.37,142.37,0,0,1-97.85,133c-74.47,24.44-154.9-16.37-179.29-91a142.43,142.43,0,0,1-7.07-42c0-.09,0-.18,0-.27s0-.33-.06-.5-.07-.32-.11-.48-.08-.25-.13-.38-.16-.38-.25-.57l-.12-.2a5.35,5.35,0,0,0-.47-.67l0,0a4.57,4.57,0,0,0-3.17-1.6l-.31,0-.21,0a2.36,2.36,0,0,0-.28,0,3.56,3.56,0,0,0-.47,0l-.48.11-.41.14a4.68,4.68,0,0,0-.45.2l-.39.22a3.69,3.69,0,0,0-.4.29l-.33.28a4.14,4.14,0,0,0-.35.38c-.06.07-.13.12-.18.19A142,142,0,0,1,309.45,1133c-74.47-24.43-115.21-105-90.82-179.57A142.77,142.77,0,0,1,237.26,916c.05-.07.08-.16.13-.24a3.62,3.62,0,0,0,.24-.43,3.25,3.25,0,0,0,.18-.43,3.73,3.73,0,0,0,.14-.44c0-.15.07-.31.1-.46s0-.3,0-.46a7.15,7.15,0,0,0,0-.93,4.26,4.26,0,0,0-.1-.49,2.56,2.56,0,0,0-.05-.27l-.07-.15a4,4,0,0,0-.19-.48c-.07-.13-.13-.27-.2-.39s-.17-.27-.26-.4l-.29-.37c-.1-.11-.21-.21-.32-.31a4.32,4.32,0,0,0-.39-.34,1.5,1.5,0,0,0-.13-.11c-.07-.05-.16-.08-.24-.13a4.49,4.49,0,0,0-.42-.24l-.44-.19-.43-.13a3.71,3.71,0,0,0-.48-.1l-.44,0h-.48l-.45,0a3.86,3.86,0,0,0-.49.1,2.56,2.56,0,0,0-.27,0A142.34,142.34,0,0,1,138.68,640a5,5,0,0,0,.89-.47l.07,0a4.84,4.84,0,0,0,.88-.81,2,2,0,0,0,.19-.22,5,5,0,0,0,.65-1.11l0-.05c0-.1.05-.21.08-.31a3.51,3.51,0,0,0,.15-.53c0-.15,0-.3.06-.45s0-.32,0-.48,0-.32,0-.48,0-.3-.06-.45a3.51,3.51,0,0,0-.15-.53c0-.1,0-.21-.08-.31l0-.06a5,5,0,0,0-.26-.52,3.3,3.3,0,0,0-.18-.32,3.65,3.65,0,0,0-.35-.43,2.31,2.31,0,0,0-.24-.29,2.93,2.93,0,0,0-.43-.36,1.63,1.63,0,0,0-.29-.23,3.42,3.42,0,0,0-.46-.26c-.12-.06-.24-.14-.37-.19l-.09-.05a142.21,142.21,0,0,1-31.19-17.15C44,567.85,29.78,478.69,75.73,415.12a142.07,142.07,0,0,1,156.2-52.78.8.8,0,0,0,.15,0c.13,0,.25.05.38.08a5.4,5.4,0,0,0,.69.08l.17,0a.76.76,0,0,0,.16,0,4.47,4.47,0,0,0,1.26-.19h0a4.79,4.79,0,0,0,1.18-.58l.14-.07a1.5,1.5,0,0,0,.13-.11,3.17,3.17,0,0,0,.39-.34c.11-.1.22-.2.32-.31s.19-.24.28-.37a3.51,3.51,0,0,0,.27-.4c.07-.12.13-.26.2-.39a4,4,0,0,0,.19-.48l.07-.15a2.56,2.56,0,0,0,.05-.27,4.26,4.26,0,0,0,.1-.49,7.15,7.15,0,0,0,0-.93c0-.16,0-.31,0-.46s-.06-.31-.1-.46a5.25,5.25,0,0,0-.32-.87,4.77,4.77,0,0,0-.24-.44c0-.07-.08-.16-.13-.23a142.77,142.77,0,0,1-18.63-37.34C194.24,243.05,235,162.5,309.45,138.07a142,142,0,0,1,157.4,49.17c0,.07.12.12.18.19a4,4,0,0,0,.34.37c.12.11.23.21.35.3a4.44,4.44,0,0,0,.38.27,4.23,4.23,0,0,0,.41.23,3.89,3.89,0,0,0,.42.19,4,4,0,0,0,.45.15,3.13,3.13,0,0,0,.44.1,4.26,4.26,0,0,0,.5.06l.27,0,.2,0,.34,0a4.58,4.58,0,0,0,3.15-1.6l0,0a5.6,5.6,0,0,0,.49-.68,1.86,1.86,0,0,0,.1-.2,5.14,5.14,0,0,0,.27-.58c0-.12.08-.24.11-.36a3.89,3.89,0,0,0,.12-.49c0-.17,0-.33.06-.5s0-.18,0-.27A142.57,142.57,0,0,1,553.39,59.78a141,141,0,0,1,108.45-8.29,142.37,142.37,0,0,1,97.85,133c0,.09,0,.18,0,.27s0,.33.06.49.07.31.11.45a3.22,3.22,0,0,0,.14.44c.06.15.12.29.19.43s.14.27.22.4l.28.39a4.38,4.38,0,0,0,.29.34c.12.13.25.24.38.36s.13.13.2.18l.12.07a3.14,3.14,0,0,0,.46.28,2.64,2.64,0,0,0,.37.2,3.29,3.29,0,0,0,.44.16,3.88,3.88,0,0,0,.45.14l.42.07a4.57,4.57,0,0,0,.52,0h.2a2.3,2.3,0,0,0,.26,0,4.35,4.35,0,0,0,.52-.06l.43-.1c.16-.05.31-.09.46-.15l.42-.19.41-.23.38-.27c.12-.1.23-.19.34-.3a4.14,4.14,0,0,0,.35-.38,1.62,1.62,0,0,0,.18-.19,142.06,142.06,0,0,1,157.43-49.21c74.47,24.43,115.21,105,90.82,179.57A142.74,142.74,0,0,1,998,355a1.34,1.34,0,0,0-.13.23,4.91,4.91,0,0,0-.25.44c-.07.14-.12.28-.18.43s-.1.29-.14.44a7.34,7.34,0,0,0-.15.92,3.69,3.69,0,0,0,0,.47c0,.15,0,.3,0,.46a3.86,3.86,0,0,0,.09.49c0,.09,0,.18,0,.27l.07.15a2.86,2.86,0,0,0,.2.48c.06.13.12.27.19.4a3.28,3.28,0,0,0,.27.38,3.47,3.47,0,0,0,.29.38l.31.31c.13.12.25.23.39.34s.08.08.13.11l.14.07a5.18,5.18,0,0,0,1.18.58h0a4.85,4.85,0,0,0,1.26.18l.15,0,.18,0a5.4,5.4,0,0,0,.69-.08c.12,0,.25,0,.37-.08a.8.8,0,0,0,.15,0A142.34,142.34,0,0,1,1096.52,631l-.08,0-.44.23c-.13.07-.27.14-.39.22s-.24.19-.36.29-.25.19-.36.3-.2.23-.3.35-.2.24-.29.37a2.18,2.18,0,0,0-.2.37,4.23,4.23,0,0,0-.25.47s0,.05,0,.07-.06.22-.1.33a4.25,4.25,0,0,0-.14.51c0,.15,0,.3-.06.45s0,.32,0,.48,0,.32,0,.48,0,.3.06.45a4.25,4.25,0,0,0,.14.51c0,.11,0,.22.1.33s0,0,0,.05a4.65,4.65,0,0,0,.64,1.1,2.31,2.31,0,0,0,.2.24,5,5,0,0,0,.86.79l.08.06a5,5,0,0,0,.89.47,142.48,142.48,0,0,1,63,215.91Z"/><path class="cls-1" d="M707.11,247l-.67,0H635.89a55.45,55.45,0,0,0,29.08-24c6.82-11.44,9-23.83,7.11-37l.31.52q10.5,18.27,21,36.54,6.68,11.63,13.37,23.24l.33.57Z"/><path class="cls-1" d="M599.2,247H527.76s0,0,0-.06a.11.11,0,0,1,0-.05c0-.09.09-.19.14-.28q17.6-30.49,35.25-61c-2,13.22.1,25.7,6.92,37.23A55.34,55.34,0,0,0,599.2,247Z"/><path class="cls-1" d="M582.12,152.6l35.42-61.38q17.63,30.65,35.16,61.12l-.08.08a54.57,54.57,0,0,0-35.27-12.52A55.15,55.15,0,0,0,582.12,152.6Z"/><path class="cls-1" d="M604.55,182.59l-5.74-4.86,1.06-.73c.54.47,1.06.92,1.59,1.35a10.44,10.44,0,0,0,1.1.78,1.25,1.25,0,0,0,.53.19c.48.07.63-.07.77-.54.08-.28,0-.41-.27-.45s-.65-.07-1-.13a.83.83,0,0,1-.44-.21c-.53-.64-1-1.29-1.59-2l2.53-2.33.68.74c-.16.38-.33.72-.44,1.08s0,.58.42.53.87-.18,1.4-.3a25.15,25.15,0,0,1,2.63,3.93l-.68.5c-.57-.35-1-.93-1.75-1a4.79,4.79,0,0,0,.78,1.84Z"/><path class="cls-1" d="M582.51,215.55c.69-.21,1.06.2,1.39.7l.32.44a11.51,11.51,0,0,1-1.82,1c-.92.44-.78.14-.77,1.21a1.36,1.36,0,0,1-.64,1.34,1.16,1.16,0,0,0-.24.2.46.46,0,0,1-.6.12,3.37,3.37,0,0,0-1.26-.4,4.22,4.22,0,0,0-1.25.46l-.6.23-1.24-2,.87-.48c-.14-1.15-1.08-1.68-1.86-2.42a13.88,13.88,0,0,1,1.88-.71c.08.17.15.32.23.47.22.38.53.46.78.1.41-.58.86-.39,1.34-.2a7.91,7.91,0,0,0,.29.78.86.86,0,0,0,1.06.43.6.6,0,0,0,.44-.8c-.11-.43-.23-.87-.38-1.29a.36.36,0,0,1,.13-.49c.26-.17.53-.31.84-.49Z"/><path class="cls-1" d="M576.18,173c.08-.29.14-.52.21-.75a2.4,2.4,0,0,0,0-1.67.64.64,0,0,1,.08-.64.62.62,0,0,1,.11-.17,1.47,1.47,0,0,0,.43-1.56,3.47,3.47,0,0,1,2.13.35c1.55,1.09,3.16,2.1,4.75,3.14l.56.38a1.9,1.9,0,0,1-.25,1.1,3,3,0,0,0-.27.5.81.81,0,0,1-1,.64c-.21,0-.34.09-.46.26l-1,1.3-1.13-.77c.11-.45.21-.88.33-1.31a.79.79,0,0,0-.38-.93,5.29,5.29,0,0,0-1.87-.73.64.64,0,0,0-.72.29c-.21.31-.37.65-.58,1Z"/><path class="cls-1" d="M626.61,240.68c.24,0,.43,0,.61,0a1.18,1.18,0,0,0,1.22-.68,3.86,3.86,0,0,0,.49-2.1c-.08-1-.19-2.06-.27-3.1a8.57,8.57,0,0,1,0-1.24c0-.44.21-.61.64-.55a10.92,10.92,0,0,1,1.6.37.69.69,0,0,1,.34.37c.18.39.34.79.5,1.19.24.61.46,1.23.7,1.84a1.85,1.85,0,0,0,.61.75,2.25,2.25,0,0,1,.91,1.88c0,.31,0,.61-.07,1a10,10,0,0,1-1.1,0,1,1,0,0,1-.79-.52,3.88,3.88,0,0,0-.3-.48A.74.74,0,0,0,631,239c-.37,0-.56.12-.62.49a7,7,0,0,0-.07,1c0,.19,0,.38,0,.57,0,.42-.08.58-.49.67-.67.14-1.36.25-2,.33a.88.88,0,0,1-.56-.22A2,2,0,0,1,626.61,240.68Z"/><path class="cls-1" d="M631.92,215l-2,1.5-1.61-1.72c.33-.35.64-.69,1-1a.46.46,0,0,0,.12-.59,3.48,3.48,0,0,0-1.24-1.4l-.82.48L626,210.69l2.55-3.11.76.64a.76.76,0,0,0,.64.25,1.33,1.33,0,0,1,1.34.79c.16.29.3.58.46.87a4.77,4.77,0,0,0,.29.55c.25.37.36.39.7.12l.54-.48c.42-.33.56-.36.95,0s.73.68,1.11,1.05L633.17,214l-4.26-4.11-.73.8Z"/><path class="cls-1" d="M641.91,216l1.09-1.21-3.11-2.91,2.22-2.42,4.37,2.71-.61,1.27-2.15-.83c0,.5.1.88.57,1.14.74.4,1.45.88,2.16,1.33a1.49,1.49,0,0,1,.42.37.42.42,0,0,1,.06.37c-.42.73-.86,1.45-1.3,2.17a1.53,1.53,0,0,1-.18.18.45.45,0,0,1-.65.08c-.2-.14-.41-.26-.6-.41l-2-1.62Z"/><path class="cls-1" d="M605.67,233.22a5.9,5.9,0,0,0,.7,2.52l-1.52.67c0,.46,0,.91,0,1.36,0,.13.12.27.2.4a1.13,1.13,0,0,1,.2,1c-.06.22-.07.45-.11.67a.69.69,0,0,1-.69.7l-1.69.22a.53.53,0,0,1-.55-.19c-.18-.23-.4-.43-.59-.64.17-.62.64-1.17.26-1.86a3.89,3.89,0,0,0-.71.13.47.47,0,0,0-.27.28,5.51,5.51,0,0,0-.11.61c0,.22,0,.44-.1.66a.45.45,0,0,1-.5.36,6.87,6.87,0,0,1-.78-.08c-.35-.06-.53-.25-.47-.61a6.38,6.38,0,0,1,.34-1.3c.22-.58.51-1.13.79-1.75h.84a1.64,1.64,0,0,0,1.3-.53,3.87,3.87,0,0,0,.85-1.23,11.45,11.45,0,0,1,.57-1.1.67.67,0,0,1,.64-.36Z"/><path class="cls-1" d="M644.8,201l.12-1.27c.17,0,.31,0,.46.05l1.41.31c.72.15.75.13,1.08-.57l2.77-.15.35,1.43-.6.25c0,.31,0,.62.09.92a.6.6,0,0,1-.34.76.83.83,0,0,0-.22.16v1.63c0,.35.05.7,0,1a.77.77,0,0,0,.54.92.61.61,0,0,1,.31.18,1,1,0,0,1,.14.32,2.47,2.47,0,0,1-1.36-.16c-1.76-.76-3.52-1.5-5.28-2.25a4.38,4.38,0,0,1-.45-.21c.19-.34.37-.64.54-.95s.35-.64.57-.93.68-.43,1.11-.07a1.88,1.88,0,0,1,.66,1.23c.16,1,.19.8,1,.78.43,0,.52-.09.56-.5s0-.63,0-.94a.56.56,0,0,0-.35-.48c-.5-.27-1-.55-1.51-.79S645.37,201.27,644.8,201Z"/><path class="cls-1" d="M587.74,189.13l1.56.58-.14,1a3.08,3.08,0,0,1-1-.2l-1-.25V189l-1.41-.24-.05,1h-1.12c-.07-.3-.12-.58-.19-.86s-.16-.55-.25-.85c-.44.13-.5.48-.63.76s-.22.58-.35.92l-1.62-.93a32.41,32.41,0,0,1,1.15-3.17c.74,0,1.46,0,2.18.11a1.93,1.93,0,0,0,1.32-.36l1.09-.79a1.1,1.1,0,0,1,1.21-.14l1.65.81V187l-2.25.15Z"/><path class="cls-1" d="M597.11,222.78l-.89-.95-2.43,1.89-1.51-1.59,2.77-2.82a7.84,7.84,0,0,1,.78,1,1.84,1.84,0,0,0,1.38.69.32.32,0,0,0,.37-.21l.47-.92-1.73-1.63,1.47-1.27c1.09,1,2,2.1,3,3.18-1.39,1.82-2.78,3.62-4.19,5.45l-1.15-.93Z"/><path class="cls-1" d="M598.31,172.44,593.59,167l1.22-1.31c.31.27.59.54.89.76a1.73,1.73,0,0,0,.6.28c.35.06.5-.11.41-.44a4.12,4.12,0,0,0-.31-.71c-.15-.27-.33-.53-.53-.84a11.33,11.33,0,0,1,1.68-.9.36.36,0,0,1,.31.11,1.75,1.75,0,0,1,.29.42c.36.77.71,1.54,1.08,2.3a1.09,1.09,0,0,1,0,1.13l-.4.74,1.71,2Z"/><path class="cls-1" d="M639.36,171.54l-1.79-1.87,2.21-3.58,1.81,1.23c-.12.32-.25.62-.35.92a7.36,7.36,0,0,0-.26,1,.52.52,0,0,0,.17.39c.06.05.27,0,.36-.11.25-.26.48-.54.71-.82l.42-.51a8.37,8.37,0,0,1,1.15,1.51l-5.23,5.82-1.39-1.46Z"/><path class="cls-1" d="M600.88,192.2a17,17,0,0,1,.1,2.56h-4.74l-.56,1.51-2.51-1.55c.12-.1.2-.18.29-.24s.27-.16.39-.25c.89-.59,1-1.12.33-2a.72.72,0,0,0-.28-.2c-.17-.09-.35-.15-.57-.25v-1.69Z"/><path class="cls-1" d="M634.62,231.23l.51-.32,3.75-2.19c.5-.28.66-.23.94.28a2.59,2.59,0,0,1,.17.38c.19.54.17.59-.31.94-.18.13-.36.27-.53.42a.77.77,0,0,0-.23,1c.15.3.29.59.43.89s.41.76.58,1.15c.29.66.22.89-.35,1.32a.92.92,0,0,1-.28.14l.09.17c.27.06.55.13.83.18s.58.07.87.13.5.34.25.64a2.42,2.42,0,0,1-1.66,1,.89.89,0,0,1-1-.45c-.16-.29-.3-.58-.46-.87-.28-.54-.42-.58-1-.35l-.29.1a.43.43,0,0,1-.59-.26,1.29,1.29,0,0,1,0-1.19,7.84,7.84,0,0,0,.5-1.24c.1-.32,0-.46-.32-.53a5.5,5.5,0,0,0-1.07-.14.52.52,0,0,1-.54-.38C634.9,231.82,634.76,231.56,634.62,231.23Z"/><path class="cls-1" d="M623.92,235v1.4l1.72.14v-2.3l1.5.14c0,.25.06.48.08.72.08,1.29.15,2.59.22,3.88,0,.53,0,.61-.56.74l-1.36.31-.4.11a1.07,1.07,0,0,0-.86,1.41c.07.38.2.76.31,1.17l-2,.33c-.32,0-.44,0-.51-.38a1.88,1.88,0,0,1,.15-1.35c.3-.56.55-1.15.8-1.74a2.66,2.66,0,0,0,0-2.07c-.2-.48-.41-.95-.61-1.43s-.09-1,.57-1.08A6,6,0,0,1,623.92,235Z"/><path class="cls-1" d="M656.71,177.77a8.27,8.27,0,0,0,.61,2.59,7.82,7.82,0,0,1-1.77.48l-.67-1.28-1.68.53-.49-2.16,6.72-3.26a14,14,0,0,1,1.55,2.76l-.78.33c0,.29.08.58.13.87s.09.53.14.8a2.11,2.11,0,0,1-1,.13,1.47,1.47,0,0,1-1.27-.63,7.4,7.4,0,0,0-.9-.87A2.94,2.94,0,0,0,656.71,177.77Z"/><path class="cls-1" d="M656.24,168.59a11.21,11.21,0,0,1,2,2.3c-.44.27-.85.52-1.25.78a3.15,3.15,0,0,0-1,.92,10.45,10.45,0,0,0,2.83-.69l.23,1.5-6.93,3.49-.76-1.37.66-.58c.39-.33.78-.68,1.19-1a.59.59,0,0,0,.23-.67,10.4,10.4,0,0,1-.25-1.58c-.05-.5,0-.55.48-.69s1.11-.28,1.66-.4c1-.22,1-.21.85-1.21A1.15,1.15,0,0,1,656.24,168.59Z"/><path class="cls-1" d="M609.1,160.4l-.44-1.74a12.78,12.78,0,0,1,4.7-1v.74l.84.27.19,2.09c-.31.06-.58.1-.84.16a1.62,1.62,0,0,0-.44.14c-.42.21-.5.52-.17.87a5.6,5.6,0,0,0,.9.78,1.13,1.13,0,0,1,.54,1.09c0,.34,0,.68,0,1.05l-3,.5c-.07-.35-.14-.68-.2-1-.19-1-.36-2.08-.54-3.12-.15-.83-.35-1-1.2-.84A2.87,2.87,0,0,1,609.1,160.4Z"/><path class="cls-1" d="M600.7,154.06l-1.81-3.81,1.41-.57c.12.43.25.84.34,1.25a.67.67,0,0,0,.51.56c.74.23.74.25,1.26-.33a1.58,1.58,0,0,0,.1-.16l-1-1.81,1.5-.83a3.25,3.25,0,0,1,.26.54,23.62,23.62,0,0,0,2,4.38,2.57,2.57,0,0,1,.31,1c0,.55.13,1.1.2,1.65a.44.44,0,0,1-.3.53,8.08,8.08,0,0,1-2.56.44,6,6,0,0,0,.06-3.35Z"/><path class="cls-1" d="M636.48,210l-2.13-1.71-1.52.86L630,206.36c.23-.4.43-.78.66-1.14A.65.65,0,0,1,631,205a2,2,0,0,1,.77-.09.79.79,0,0,0,.93-.6,5.35,5.35,0,0,1,.37-.69l3.12,1.75-.29,1.39.93.29.95.28Z"/><path class="cls-1" d="M614.53,169.16a1.69,1.69,0,0,1,0,1.67c-.18.29-.33.61-.52.89a1.46,1.46,0,0,0-.23.88c0,1.19,0,2.39,0,3.58v.6l-2.22.52a.38.38,0,0,1-.11-.05c-1-1.07-.9-1.05-.3-2.18.07-.12.14-.24.21-.38a2.92,2.92,0,0,0-1-1.16,4.77,4.77,0,0,1-1.5-1.56,1,1,0,0,1,.17-1.24.53.53,0,0,1,.75,0c.29.18.56.4.84.61a1.2,1.2,0,0,0,1.46-.09.78.78,0,0,0,.16-.37c.08-.37.16-.74.25-1.18Z"/><path class="cls-1" d="M623.11,170.35l-.77,1.82,1.4,1-1.32,4-2.55-.47.2-1.42L619,175V170.9l1.58-.18.09-1.35Z"/><path class="cls-1" d="M622.73,224.55l.2,1.74,2,.18.16,1.35c-.36.12-.68.23-1,.32a.56.56,0,0,0-.45.49c-.12.68-.05.83.64.92a13.2,13.2,0,0,0,1.45.08,3.33,3.33,0,0,1,0,1.33l-4.93,1c0-.51-.07-1-.07-1.46,0-.1.09-.22.15-.31s.32-.42.44-.64a1,1,0,0,0-.26-1.46c-.2-.16-.42-.29-.67-.47v-2.92Z"/><path class="cls-1" d="M579.18,204.44l-6.27.48v1.28l-1.51-.43c-.21-.06-.23-.24-.24-.41-.17-1.53-.33-3.06-.5-4.64.64-.19,1.3-.08,2-.25l.14,2h4.33l.1-1,1.35.25Z"/><path class="cls-1" d="M641.34,222.66l-2-1.69.94-1.21-.91-.16a1.08,1.08,0,0,1-.44-.14c-.52-.39-1-.81-1.57-1.25l1.57-1.16a15.42,15.42,0,0,0-1.78-1.49c.53-.46,1-.91,1.55-1.33a.57.57,0,0,1,.38-.11q.89.15,1.77.33a1.17,1.17,0,0,1,.38.17.52.52,0,0,1,.07.87,2.08,2.08,0,0,1-.36.2.94.94,0,0,0-.29,1.53l3.24,3.06c-.25.17-.5.34-.76.49C642.39,221.21,641.59,221.6,641.34,222.66Z"/><path class="cls-1" d="M652.49,166.94l1.74-1.67a12.88,12.88,0,0,1,1.71,2.35l-3.46,2.62-1.33,1c-.3.23-.34.36-.16.7a9.35,9.35,0,0,0,.55.85l-.69.55c-.42-.49-.86-1.08-1.31-1.65a9.93,9.93,0,0,0,.47-1c.16-.42,0-.61-.44-.52a5.05,5.05,0,0,0-.82.3c-.19.08-.37.2-.54,0a.72.72,0,0,1-.05-.77,1.53,1.53,0,0,1,.18-.18l2.87-2.85c.33-.33.39-.34.79-.07Z"/><path class="cls-1" d="M633.85,227.56a7.91,7.91,0,0,0-.79-.48.62.62,0,0,0-.84.11.71.71,0,0,0,.06.87c.07.09.15.18.29.33l-1,.34-1.83-1.88a.34.34,0,0,1,0-.5,4.13,4.13,0,0,1,.47-.55c.13-.14.27-.26.43-.42l-2.1-2.85,3.88-2.31c.3.42.31.45,0,.77s-.16.68-.15,1,.26.37.47.48a6.31,6.31,0,0,1,.77.42c.31.22.35.37.21.71a5.56,5.56,0,0,1-.44.88.53.53,0,0,0,0,.58c.23.46.41.95.67,1.4A.82.82,0,0,1,633.85,227.56Z"/><path class="cls-1" d="M589,196l-2.19.35-.11,2a4.23,4.23,0,0,1-1.23,0c-.38-.64-.75-.86-1.12-.7s-.36.48-.24,1.07a6.73,6.73,0,0,1-2.55.12.82.82,0,0,1,0-1.08l.57-.86c.22-.35.22-.36,0-.68s-.48-.54-.7-.83-.21-.62.26-.76a2.64,2.64,0,0,1,.56-.11l5.17-.23a1.38,1.38,0,0,1,1.34.92Z"/><path class="cls-1" d="M579.9,183.61c-.38,0-.7.08-1,.15a.69.69,0,0,0-.37.23.92.92,0,0,1-1.26.29l-5.16-2.1.09-.86a3.17,3.17,0,0,1,.06-.82,1.26,1.26,0,0,1,.45-.53,4,4,0,0,1,.69-.33c0-.6.39-.88.83-1.17a.38.38,0,0,1,.43,0c.35.23.71.43,1,.68a.88.88,0,0,1,.31,1.14c-.22.66-.15.83.49,1.13a3.31,3.31,0,0,0,1.9.36,1.7,1.7,0,0,1,1.14.26.79.79,0,0,1,.42.72C579.93,183,579.91,183.32,579.9,183.61Z"/><path class="cls-1" d="M601,158.09l-2.36.89a2.22,2.22,0,0,1-.17-.22q-1.68-3.21-3.37-6.42c-.38-.71-.23-1,.51-1.22a12.18,12.18,0,0,1,1.82-.34.45.45,0,0,1,.32.19,7.31,7.31,0,0,1,.4.79c.94,2,1.87,4.07,2.81,6.11A1.09,1.09,0,0,1,601,158.09Z"/><path class="cls-1" d="M571.84,207.84c1.09.11,2.11,0,2.44-1.31a6,6,0,0,1,1,0,7.8,7.8,0,0,0,2.77-.19l2-.37.34,2.74-2.78.85.13-.67-2.49-.23.68,1.83-2,.83c-.08-.32-.17-.59-.23-.87a.57.57,0,0,0-.39-.5,1.83,1.83,0,0,1-1.34-1.54c0-.15-.1-.29-.14-.44S571.82,207.92,571.84,207.84Z"/><path class="cls-1" d="M594.81,218.17c0,.06,0,.08,0,.09l-1.31,1.16-.29-.28a2.06,2.06,0,0,0-.4-.33.51.51,0,0,0-.42,0,.33.33,0,0,0-.13.45,2.82,2.82,0,0,0,.23.46c.07.12.15.24.25.39l-1.17,1-2.25-2.2c.74-.67,1.45-1.3,2.14-2a6.86,6.86,0,0,0,.67-.84c.19-.28.36-.59.53-.89a1.31,1.31,0,0,1,1.08-.71,3.32,3.32,0,0,0,1.63-.41l1.52,1.46a.38.38,0,0,1,.08.32c-.18.44-.38.88-.59,1.35l-.71-.31c-.14,0-.28-.12-.43-.16-.53-.13-.85.2-.69.73A6.44,6.44,0,0,0,594.81,218.17Z"/><path class="cls-1" d="M661.28,200.78l2.29.18-.14,1.3-1,.14a2.9,2.9,0,0,0,1,2.46,9.27,9.27,0,0,1-1.16.46,1,1,0,0,1-.59-.08,7,7,0,0,0-3.32-.54,9.84,9.84,0,0,1-1.09,0,1.38,1.38,0,0,1-.49-.1c-.38-.16-.43-.33-.23-.68a1.64,1.64,0,0,1,.14-.22.49.49,0,0,0-.06-.66c-.24-.25-.49-.49-.72-.75s-.41-.39-.3-.67.43-.23.68-.23a12.37,12.37,0,0,1,3,.42c1.16.27,1.32.19,1.91-.84A2.21,2.21,0,0,1,661.28,200.78Z"/><path class="cls-1" d="M593.15,231.45l-.77,1c-.54.7-1.07,1.4-1.62,2.09-.28.35-.37.37-.75.17a7.92,7.92,0,0,1-.92-.58c-.54-.4-1.06-.83-1.6-1.24a.4.4,0,0,1-.19-.52c.14-.35.27-.7.42-1.08l2.2,1a1.54,1.54,0,0,0-.16-1.46c-.22-.28-.46-.55-.69-.84s-.35-.42-.14-.64.45,0,.65.12l.88.57a1.54,1.54,0,0,0,.46-1.26,4.54,4.54,0,0,0-.67-1.19l1.54-1.68.79.62a4.23,4.23,0,0,1-.18.8.89.89,0,0,0,.29,1.06l.28.31a7.17,7.17,0,0,1-.54,1,.64.64,0,0,0,0,.85C592.64,230.89,592.89,231.15,593.15,231.45Z"/><path class="cls-1" d="M605.49,241.75c.07-.19.14-.34.19-.5a1.11,1.11,0,0,0,.06-.4,2.78,2.78,0,0,1,1-2.36.82.82,0,0,0,.28-.41,5.76,5.76,0,0,0,.16-1.23,4.33,4.33,0,0,1,.46-1.94,1.52,1.52,0,0,1,.49-.52.69.69,0,0,1,.86,0,6.27,6.27,0,0,0,.82.41.66.66,0,0,1,.39.52,1.84,1.84,0,0,1-.6,1.87,4.18,4.18,0,0,0-.76.91.87.87,0,0,0,.07,1.14,11.79,11.79,0,0,0,1.14,1.2.63.63,0,0,1,.25.67,6.65,6.65,0,0,1-.26,1.11c-.17.5-.45.57-.87.27a6.19,6.19,0,0,1-.55-.47,1.22,1.22,0,0,0-1.15-.33c-.37.08-.74.14-1.12.2A1,1,0,0,1,605.49,241.75Z"/><path class="cls-1" d="M577.37,180.52l-.13-2-3.78-2.05.3-1.2a11.69,11.69,0,0,1,1.22.13,2.94,2.94,0,0,0,2.1-.28.59.59,0,0,1,.67,0c.34.2.69.39,1,.56a.46.46,0,0,1,.3.48c0,.33,0,.66,0,1a6.75,6.75,0,0,0,1.43.26,2,2,0,0,1,.71.25.92.92,0,0,1,.36,1.22,4.81,4.81,0,0,0-.23.62h-1.74l-.26,1.09Z"/><path class="cls-1" d="M646.91,221l2-2.43c.11.23.18.36.23.49.2.5.38,1,.6,1.49.3.65.53.76,1.23.63.26,0,.5-.13.75-.2a1.17,1.17,0,0,1,1,.18l.9.61a1.86,1.86,0,0,0,1,.35c.47,0,.94.16,1.51.26l-2.56,2.94-.56-.4c-.76-.6-1.52-1.19-2.27-1.8a.65.65,0,0,0-.71-.14c-.29.11-.59.18-.89.27a.48.48,0,0,1-.55-.16C648.07,222.38,647.5,221.71,646.91,221Z"/><path class="cls-1" d="M637,199.85l1.28.11-.55.63a1.17,1.17,0,0,0,0,1.3.73.73,0,0,0,.9.32c.51-.1,1-.23,1.58-.36-.4,1.51-.87,3-1.3,4.43l-1.52-.11v-1.69L632.47,202c.14-.69.27-1.35.4-2,.06-.31.35-.34.59-.47a1.56,1.56,0,0,1,.2.38,1.37,1.37,0,0,0,1.17,1,4,4,0,0,0,.76.13,1.12,1.12,0,0,0,1.11-.62C636.8,200.26,636.88,200.07,637,199.85Z"/><path class="cls-1" d="M627.14,155.3l-2.08.1c.06-.21.1-.37.14-.53.18-.63.35-1.27.53-1.9a2.3,2.3,0,0,0-.12-1.67c-.22-.5-.46-1-.71-1.55l1.8-.39.16-1.66,2.67.49-.41,1.05c.28.2.63.33.77.57s0,.57,0,.91a5.65,5.65,0,0,1-.88.1.78.78,0,0,0-.77.42c0,.06-.08.11-.11.17-.36.56-.31.78.25,1.14.23.15.48.27.74.42l.1,1.35a11.09,11.09,0,0,1-1.94.2Z"/><path class="cls-1" d="M584.84,211.05l1.86-.9c.76-.39,1.5-.8,2.26-1.16a.7.7,0,0,0,.42-.84c-.07-.39-.11-.78-.18-1.22a2,2,0,0,1,1.61.44c.14.15.31.27.47.41a4,4,0,0,1,1.48,2.27l-2.22,2.23c-.14-.42-.23-.69-.31-1a.46.46,0,0,0-.4-.34,1.75,1.75,0,0,0-1.34.19c-.2.12-.44.19-.72.32l.81,1.21a19.67,19.67,0,0,1-2.37,1Z"/><path class="cls-1" d="M633.49,219c.94-.84,1.83-1.66,2.75-2.45a1,1,0,0,1,1.38.3c.09.24.1.43-.16.58s-.4.27-.6.4l-.62.43c.31.28.59.55.88.8l.9.83L636.87,221l1,1.49,1-.94a16,16,0,0,1,1.39,2.26l-2.39,1.37C636.42,223.08,635,221.06,633.49,219Z"/><path class="cls-1" d="M593.63,174.53c-.77-.76-1.52-1.48-2.24-2.22a.59.59,0,0,1-.1-.42c0-.25.11-.51.16-.76a1.08,1.08,0,0,0-.27-1l-.69-.75,2.26-1.11,4.42,4.91-1.92,2.52-.85-.49c.23-.25.46-.47.65-.71a3.5,3.5,0,0,0,.37-.62.4.4,0,0,0-.06-.37.47.47,0,0,0-.41-.08,3.52,3.52,0,0,0-.72.49A7.14,7.14,0,0,0,593.63,174.53Z"/><path class="cls-1" d="M589.09,198.86a15.34,15.34,0,0,1,.2,2.76l-2.75.58c-.17.32.08.6.09,1l-.58.33c-.46.25-.92.48-1.36.74a2.18,2.18,0,0,1-1.8.11c-.49-.13-.58-.41-.34-.87.1-.2.23-.38.34-.58.25-.44.23-.59-.13-1-.22-.22-.46-.41-.67-.64s-.44-.46-.31-.77.5-.29.78-.26c.53.06,1.05.17,1.57.27a4.32,4.32,0,0,1,.64.19,1.12,1.12,0,0,0,1.35-.34,8,8,0,0,0,.57-.6,1.54,1.54,0,0,1,1.11-.65C588.21,199.07,588.61,199,589.09,198.86Z"/><path class="cls-1" d="M632.81,168.21l-1.35-1-1,1.37-1.83-1.61,2.52-6.07,1.94,1.26c-.18.34-.37.65-.53,1-.49,1-.68,1,.26,2,.48.56,1,1.08,1.58,1.66C633.93,167.26,633.37,167.7,632.81,168.21Z"/><path class="cls-1" d="M604.6,163.54l.8-1a1.12,1.12,0,0,0,.22-1.12c-.16-.47-.35-.93-.54-1.46.7-.2,1.44-.3,2.22-.45l.43,1.16a3.93,3.93,0,0,0,.5,1.18,3.5,3.5,0,0,0,1.08.59l.8.41-.78.51c-.19.13-.37.25-.55.39-.41.3-.42.35-.15.8.16.27.34.52.51.78.07.11.13.23.22.39l-3.32.89Z"/><path class="cls-1" d="M647.06,226.94c.16-.25.31-.44.43-.65s.15-.4-.1-.68l-2-2.16.91-1.55.9.67c.9.61,1.81,1.21,2.69,1.84s1.62,1.18,2.42,1.79a5,5,0,0,1,.58.62l-1,.81-.51-.61c-.35-.41-.45-.42-.91-.16a2.15,2.15,0,0,1-.38.15c-.12.05-.25.08-.45.14.18.28.34.52.51.75s.32.41.46.63a.48.48,0,0,1,0,.62c-.18.21-.41.13-.63.06a2.53,2.53,0,0,1-.37-.18A18.25,18.25,0,0,1,647.06,226.94Z"/><path class="cls-1" d="M570.5,196.14h3v.78l4.55.5v2.14l-3.32-.16.09,1.93-1.34.08-.17-2.16-2.86-.94A17.68,17.68,0,0,1,570.5,196.14Z"/><path class="cls-1" d="M663.8,199.63c-.49-.18-.88-.29-1.26-.45a3.28,3.28,0,0,0-1.66-.27,7.28,7.28,0,0,1-.81,0V201a4.9,4.9,0,0,1-2.83-.35c0-.17,0-.35,0-.54v-.57l1.15-.23-.22-1.23-1.69-.1.13-1,2.07.08.07-.82h2.41l-.07,1.15c.65.09.64.09.88-.43.48-1.06.43-.86,1.39-.83a3.2,3.2,0,0,1,.48.08A31.9,31.9,0,0,1,663.8,199.63Z"/><path class="cls-1" d="M599.35,234.55l-.23.56c-.42,1-.83,2-1.28,3a2.32,2.32,0,0,1-.54.68.38.38,0,0,1-.63,0,8.08,8.08,0,0,1-.57-.6.44.44,0,0,1,0-.69,4.61,4.61,0,0,1,.75-.64,2,2,0,0,0,.87-1.51,4.48,4.48,0,0,1,.31-1.14.45.45,0,0,0-.11-.56c-.16-.15-.35-.28-.52-.42a3.15,3.15,0,0,1-.38-.35.65.65,0,0,1,.37-1.11c.43-.1.89-.12,1.33-.2s.66-.09.79-.52c.08-.28.66-.28.91,0a1.31,1.31,0,0,1,.2.3.55.55,0,0,0,.48.33.92.92,0,0,1,.82.56c.48.88.7,1-.21,2-.25.26-.52.5-.79.74s-.42.31-.81,0l-.51-.34A1.35,1.35,0,0,0,599.35,234.55Z"/><path class="cls-1" d="M583.55,223.22l-.11-.73a1.43,1.43,0,0,0-.37.14c-.27.21-.52.46-.79.66-.61.44-1.23.84-1.84,1.26a.46.46,0,0,1-.68-.07c-.55-.58-1.11-1.14-1.65-1.72-.21-.23-.2-.39.06-.56a7.9,7.9,0,0,1,.94-.54c.21-.12.35,0,.49.16.67.64.82.66,1.57.11.49-.35,1-.72,1.43-1.11a2.56,2.56,0,0,0,.46-.62c.4-.7.79-1.42,1.19-2.15a2.69,2.69,0,0,1,1.14.4.32.32,0,0,1,.14.14,1.13,1.13,0,0,1-.52,1.31c-.2.06-.4.1-.6.14-.17.24,0,.44.09.62s.38.14.57.08a2.81,2.81,0,0,0,.54-.29c.25-.16.48-.35.72-.52s.52-.12.57.25a.88.88,0,0,1-.27.76q-.84.81-1.71,1.59A2.67,2.67,0,0,1,583.55,223.22Z"/><path class="cls-1" d="M610,155l-3.06.65a12.92,12.92,0,0,1,.38-1.3,2.35,2.35,0,0,0-.09-2c-.6-1.3-1.21-2.59-1.81-3.89l-.22-.44L609,147c0,.22,0,.41,0,.59.05,1.78.11,3.56.15,5.34a2.05,2.05,0,0,0,.28,1.08C609.62,154.29,609.76,154.6,610,155Z"/><path class="cls-1" d="M598.66,163.05l.84-.57c.51.46,1,.9,1.48,1.33.12.11.25.19.37.29a.45.45,0,0,0,.61,0l1.3-.92.91,1.18c-.22.4-.45.77-.63,1.16s-.18.7.34.95.94.42,1.49.66l-3.5,2.66c-.32-.36-.64-.7-.93-1.05a.47.47,0,0,1-.05-.29,2.33,2.33,0,0,1,.08-.36,2.41,2.41,0,0,0-.24-1.8L599,163.5Z"/><path class="cls-1" d="M638.27,171.57l-1.7,1.92-3-2.75,4.13-6.13,1.71.87-2.93,4.21Z"/><path class="cls-1" d="M640.85,153.19l2.4,1.27c-1.44,2.25-2.94,4.4-4.42,6.58l-1.6-.88a7.58,7.58,0,0,1,1-1.58c.29-.33.28-.45-.08-.68a9.8,9.8,0,0,0-.92-.48,4.56,4.56,0,0,1,.24-.55c.24-.41.47-.81.74-1.19s.29-.32.66-.2c.83.29.81.32,1.2-.56.18-.4.33-.8.5-1.2C640.67,153.56,640.75,153.41,640.85,153.19Z"/><path class="cls-1" d="M574.28,195.68l-.09-.63-3.65-.34v-2.42l4.78.13.18-.41h2a7.42,7.42,0,0,1,0,.82.79.79,0,0,1-.25.36c-.69.58-.7.79.07,1.24.52.31.4.78.51,1.25Z"/><path class="cls-1" d="M614.92,220.71c-.31-.27-.58-.53-.87-.77a5,5,0,0,0-.72-.51c-.43-.25-.71-.14-.88.33-.07.17-.11.36-.17.56a3.14,3.14,0,0,1-1.38-.39.47.47,0,0,1-.24-.57,1.37,1.37,0,0,1,.85-1.09,11.64,11.64,0,0,1,1.18-.39,1,1,0,0,0,.78-.66c.44-1,.92-2,1.3-3a1.06,1.06,0,0,1,.94-.8c.21,0,.42-.1.7-.17,0,.61,0,1.17-.08,1.73-.1,1.61-.2,3.21-.28,4.82,0,.52,0,.54-.5.71C615.34,220.6,615.13,220.65,614.92,220.71Z"/><path class="cls-1" d="M587.46,168c0-.88,0-1.75,0-2.63a.7.7,0,0,1,.2-.39c.3-.32.6-.63.92-.92a.48.48,0,0,0,.18-.45c0-.24-.08-.48-.15-.71-.15-.5-.36-.62-.85-.47s-.8.32-1.27.51L584,160.14l1.87-1.59,5.19,5.3-3.5,4.15Z"/><path class="cls-1" d="M597,198.74l-.91,2.5-2.37.11c.57-1.26.94-2.46-.47-3.42l.42-.19,4.08-1.46a1.21,1.21,0,0,1,.45-.12h2.65l-.11,2.11Z"/><path class="cls-1" d="M645.5,226.88c.21.25.41.53.64.78l2.11,2.15c.21.22.43.45.63.69s.22.48-.12.72a1.58,1.58,0,0,1-.36.2c-.41.15-.81.3-1.23.41a4.07,4.07,0,0,1-.69,0l.38-.94c.23-.54.11-.8-.48-.84a3.87,3.87,0,0,0-1.17.14.57.57,0,0,1-.64-.18c-.34-.37-.72-.7-1.05-1.08a4.93,4.93,0,0,1-.55-.8c-.28-.48-.53-1-.79-1.46a.8.8,0,0,1,.05-.88.62.62,0,0,1,.75-.31h.1a2.07,2.07,0,0,0,2.23-.3,1.14,1.14,0,0,1,.37-.17c.33-.11.49,0,.43.33a2.64,2.64,0,0,1-.22.74C645.79,226.38,645.65,226.6,645.5,226.88Z"/><path class="cls-1" d="M654.33,183.2l.12-1c.29,0,.56,0,.83,0a1,1,0,0,0,.86-.24.62.62,0,0,1,.89,0,1.17,1.17,0,0,0,1.22.15,3.21,3.21,0,0,1,.79-.22,1.34,1.34,0,0,0,1-.7,3,3,0,0,0,.31-.48.69.69,0,0,1,.52-.38c.83-.18,1.06-.05,1.32.79.09.3.15.6.24.93l-.39,0c-.51.07-.73.44-.48.89a6.79,6.79,0,0,0,.65.87c.15.2.38.36.38.7a3.17,3.17,0,0,1-1,0c-.58-.06-1.16-.13-1.74-.23a3.09,3.09,0,0,0-1.57.19,2.92,2.92,0,0,1-.34.13,1.32,1.32,0,0,1-1.78-.63,1.26,1.26,0,0,0-1.12-.66C654.83,183.26,654.61,183.23,654.33,183.2Z"/><path class="cls-1" d="M649.26,192.52c.13.82.76.64,1.34.66V192l2.76-.47c0,.37,0,.69,0,1s-.15.27-.32.35a5,5,0,0,0-.86.46.76.76,0,0,0-.31,1.08c.11.25.25.49.35.75s0,.39-.26.45a2.11,2.11,0,0,1-.36,0c-1.67-.09-3.34-.16-5-.26a2.36,2.36,0,0,1-.74-.18.76.76,0,0,1-.18-1.37.6.6,0,0,1,.31-.17,1.08,1.08,0,0,0,.81-.66.94.94,0,0,1,1-.54c.43,0,.86,0,1.29,0Z"/><path class="cls-1" d="M592.16,234.41c.66-.94,1.27-1.84,1.91-2.72a2.37,2.37,0,0,0,.4-.94l.42-2.08c.07-.36.2-.45.53-.31a4.85,4.85,0,0,1,.49.29l1,.63c.27.17.3.23.17.54a1.27,1.27,0,0,1-.2.36,6.91,6.91,0,0,0-.86,1.52,13.22,13.22,0,0,1-.69,1.22.68.68,0,0,0,0,.94c.31.42.63.83.94,1.24l.32.46-1.39.11.14,1.77-1.46.16c-.08-.44-.15-.84-.2-1.25a1.14,1.14,0,0,0-.34-.67C593,235.28,592.58,234.86,592.16,234.41Z"/><path class="cls-1" d="M588.86,202.82a12.15,12.15,0,0,1,1.5,2.16l-1,.63a14.13,14.13,0,0,1-1.22.79.82.82,0,0,0-.46.89c0,.4.07.79.11,1.24l-1.28.12c-.11-.15-.22-.32-.35-.47a2.79,2.79,0,0,0-.51-.52.57.57,0,0,0-.45-.12.53.53,0,0,0-.18.44,8.6,8.6,0,0,0,.15.86c0,.18.09.36.14.57h-1l-1.26-3.17c.54-.34,1.07-.68,1.62-1a1,1,0,0,1,.45-.07c.41,0,.83-.06,1.24-.11a.92.92,0,0,0,.37-.14c.38-.28.75-.56,1.1-.86a2.56,2.56,0,0,0,.39-.48Z"/><path class="cls-1" d="M654.31,216.82c0,1.08.66,1.47,1.38,1.86a8.11,8.11,0,0,1,1.19.82,1.4,1.4,0,0,1,.36.61.67.67,0,0,1-.28.73.57.57,0,0,1-.68,0,2,2,0,0,1-.3-.2,1.5,1.5,0,0,0-1.47-.22,8.15,8.15,0,0,0-.83.29.38.38,0,0,1-.42,0l-3.82-2.94c.31-.64.58-1.27.92-1.86a1.58,1.58,0,0,1,.61-.53.42.42,0,0,1,.38,0,1,1,0,0,1,.6.84c0,.19,0,.38,0,.57,0,.46.22.63.67.54s.62-.19.94-.28S654,216.9,654.31,216.82Z"/><path class="cls-1" d="M633,149.69l2,.09c-.36.58-.65,1.08-1,1.57-.07.11-.26.14-.4.21a11.11,11.11,0,0,0-1.25.61c-.39.24-.38.46-.05.79a2,2,0,0,0,.42.3.75.75,0,0,1,.48.77,2.26,2.26,0,0,0,0,.33c-.15.1-.29.19-.42.29a1,1,0,0,0,0,.1,1.08,1.08,0,0,0,.6,1.4,1.42,1.42,0,0,1,.28.22.54.54,0,0,1,.06.13c-.72.32-.39,1-.56,1.62l-3.41-1.62c.07-.2.12-.38.18-.55.68-2,1.35-4,2-6,.08-.23.12-.47.2-.7a3.05,3.05,0,0,1,.22-.32,1.28,1.28,0,0,1,.34.26A2.91,2.91,0,0,1,633,149.69Z"/><path class="cls-1" d="M644.13,206.88a5.46,5.46,0,0,1,0-.62c.06-.35.25-.49.59-.37a1.84,1.84,0,0,1,1.17,1.09,3.06,3.06,0,0,0,1.33,1.38c.13.08.41,0,.58-.09.4-.19.78-.42,1.16-.63l.79.72a1,1,0,0,1,.08,1.47,3.76,3.76,0,0,1-2.16,1,1.73,1.73,0,0,1-.76-.14l-2.15-.71a1.14,1.14,0,0,1-.41-.21c-.49-.47-1-.94-1.44-1.42a.69.69,0,0,1,.33-1.11,3.26,3.26,0,0,0,.44-.15C643.85,207.05,644,207,644.13,206.88Z"/><path class="cls-1" d="M625.32,223.37l1-.22a.39.39,0,0,1,.41.14,4.62,4.62,0,0,0,.58.59,1.44,1.44,0,0,0,.62.35,2.2,2.2,0,0,1,1.25.88c-.13.27-.24.53-.37.76a1.39,1.39,0,0,0,.23,1.8c.38.4.74.82,1.11,1.23l.34.37-3.86,1C626.17,228,625.76,225.69,625.32,223.37Z"/><path class="cls-1" d="M601.14,207.34c-.22-.46-.42-.88-.61-1.31s-.15-.43.12-.67a2.88,2.88,0,0,1,1.64-.7c.38,0,.55.13.57.5a8.55,8.55,0,0,1,0,.88.67.67,0,0,0,.46.73,8.75,8.75,0,0,1,1,.46,2,2,0,0,1,.39.25c.31.27.29.56-.07.75a4.15,4.15,0,0,1-.78.24.38.38,0,0,1-.21,0,1.59,1.59,0,0,0-1.61.75c-.83,1-1.72,2-2.64,3l-1.63-1.56Z"/><path class="cls-1" d="M632.77,188.94,632,187l5.8-4.09,1.82,4c-.53.2-1,.4-1.55.57-.1,0-.25-.06-.35-.14s-.35-.33-.53-.48a.79.79,0,0,0-1-.1c-.45.26-.91.5-1.35.77C634.18,188,633.51,188.44,632.77,188.94Z"/><path class="cls-1" d="M628.49,176.34l-.37-1.38a.91.91,0,0,1,.17-.88l1.23-1.38,3,1.89-2.44,2.47c.07.39.16.69.18,1,0,.59-.15.92-.72,1a4,4,0,0,0-1.93.75l-.1,0c-.28.08-.6.16-.83-.07s-.08-.51,0-.73c.44-.75.9-1.47,1.36-2.2C628.22,176.68,628.37,176.51,628.49,176.34Z"/><path class="cls-1" d="M623.8,163.66l-.41,1-1.78-.6,1.59-6.2.36.11c.63.25,1.25.51,1.88.73a1.1,1.1,0,0,1,.77,1.1,1.5,1.5,0,0,1,0,.52c-.31.84-.61,1.68-1,2.5a1.21,1.21,0,0,1-.58.48A7,7,0,0,1,623.8,163.66Z"/><path class="cls-1" d="M650.84,182.56c-.85.34-1.64.69-2.45,1a3.25,3.25,0,0,0-1.51,1c-.27.31-.52.64-.8,1a1.06,1.06,0,0,1-.4.3c-.61.18-1.23.33-1.91.52-.21-1.09-.41-2.15-.63-3.26l1.85-.34,1.62-.35a2.4,2.4,0,0,0,1.2-.67l1.62-1.66C649.93,180.91,650.37,181.72,650.84,182.56Z"/><path class="cls-1" d="M653.29,209.08a1.22,1.22,0,0,1,.92,0c.5.19,1,.4,1.48.61.23.1.46.22.69.34a2.91,2.91,0,0,0,1.9.27,13.64,13.64,0,0,1,1.8-.14c.5,0,.57.07.72.55a1.17,1.17,0,0,0,.06.2,2.49,2.49,0,0,1-.1,2.38,1.24,1.24,0,0,1-1.69.72,2.53,2.53,0,0,1-.86-.55,16.08,16.08,0,0,0-2.51-2,25.73,25.73,0,0,1-2.09-1.69A.69.69,0,0,1,653.29,209.08Z"/><path class="cls-1" d="M617.33,237a.58.58,0,0,0,.45.47.51.51,0,0,1,.43.51c0,.62.07,1.24.1,1.86a.33.33,0,0,1-.29.36l-.62.23c0,.55,0,1.1,0,1.65,0,.4,0,.8,0,1.2s-.17.57-.58.48-.93-.27-1.4-.36a10.56,10.56,0,0,0-1.13-.13,3.59,3.59,0,0,1-.46-.05.27.27,0,0,1-.19-.4,5,5,0,0,1,.3-.76.78.78,0,0,1,.4-.31,7.41,7.41,0,0,1,.84-.24.58.58,0,0,0,.51-.5,9,9,0,0,0,.16-1c0-1.07.06-2.15,0-3.21,0-.66.23-.89.84-.88.26,0,.52,0,.78,0s.4.15.27.43A5.47,5.47,0,0,1,617.33,237Z"/><path class="cls-1" d="M620.08,163.76c-.3.41-.6.78-1.14.68a10.46,10.46,0,0,0-2.62-.1h-.54l-.14-7.61,2.25.13c0,1.71-.3,3.35-.47,5.07Z"/><path class="cls-1" d="M573.74,213.94l-.37-1.36,7.1-2.81a5.82,5.82,0,0,1,1.13,2c-.59.22-1.18.46-1.77.66a1.4,1.4,0,0,0-.75.6,7.84,7.84,0,0,1-.66.86c-.26.31-.34.33-.71.16a3.59,3.59,0,0,1-.71-.42.89.89,0,0,0-.86-.17c-.58.14-1.18.25-1.77.37C574.19,213.88,574,213.9,573.74,213.94Z"/><path class="cls-1" d="M620,215.32l-.12-2.23L621,213l.3,7.23c-1.35,0-2.67-.12-4-.19l-.19-1.61c.87-.08,1.7,0,2.57-.07l.24-1.31-2.23-.27-.09-1.63Z"/><path class="cls-1" d="M610.1,147l3.49-.15a2.44,2.44,0,0,1,.08.32c0,.09,0,.2,0,.34l-1.68.2c0,.07-.06.1,0,.13.07.35,0,.78.26,1s.6.28.93.4l1,.38c.23,1.35.3,2.71.4,4.14-.74.08-1.46,0-2.23.08Z"/><path class="cls-1" d="M634.15,195.91,634,195l4.26-.93c0-.29-.07-.55-.11-.82s-.25-.25-.44-.26l-1.71-.15.16-.92,4.12-.29c.14.69.24,1.35.41,2a4.48,4.48,0,0,1-.14,2.08Z"/><path class="cls-1" d="M641.34,162.83c.17-.41.57-.45.86-.72l-.55-.52c-.19-.17-.39-.33-.63-.52a4.34,4.34,0,0,1,.31-.61c.43-.62.89-1.23,1.32-1.85a.57.57,0,0,1,.53-.25,9.05,9.05,0,0,0,1-.05,7,7,0,0,0,.7-.15c-.2-.84-.87-1.28-1.34-1.92l.83-.73,2.67,1.94c-.07.11-.12.22-.19.31-.49.58-1,1.16-1.47,1.75a1.17,1.17,0,0,1-.59.38,12.62,12.62,0,0,0-1.23.4c-.47.17-.54.29-.4.78s.34.9.52,1.39l-1.62,1.16Z"/><path class="cls-1" d="M593.18,211.33l1.2,1.45-3.91,2.37.47,1c-.75.41-1.48.82-2.22,1.21a.33.33,0,0,1-.51-.17L587,215Z"/><path class="cls-1" d="M644.77,165.59l-1.13-1.09c1.45-1.95,2.87-3.89,4.39-5.81l2.27,1.94Z"/><path class="cls-1" d="M656.36,193.08l.59,0,3.62-.13c.16,0,.41.1.42-.22,0,0,.1-.09.16-.1l2.59-.19-.17,1.12c-.07,0-.09.09-.12.09-.59.1-.92.4-.87,1,0,.09-.06.19-.1.29l-2.58.24c-.43,0-.86.06-1.29.12a.69.69,0,0,0-.37.21.91.91,0,0,1-1,.24l-.2-.06c-.75-.31-.82-.43-.78-1.23,0-.42,0-.83.07-1.25A.92.92,0,0,1,656.36,193.08Z"/><path class="cls-1" d="M588.5,222.89c-.42.3-.79.6-1.2.86a.8.8,0,0,0-.4.78c0,.36,0,.72.05,1.08s-.14.59-.54.44c-.23-.08-.44-.21-.66-.29a1.17,1.17,0,0,0-1-.06c.05.2.08.39.14.58s.19.41.27.62,0,.44-.34.34a3.84,3.84,0,0,1-.65-.31c-.21-.11-.41-.25-.62-.36a.78.78,0,0,0-.74,0,.46.46,0,0,0-.18.77c.22.24.48.45.72.67s.27.2.45.34c-.21.08-.37.14-.51.21a.35.35,0,0,1-.46-.11c-.54-.6-1.09-1.2-1.62-1.81a1.29,1.29,0,0,1-.22-.35.43.43,0,0,1,.16-.59,3.47,3.47,0,0,1,.45-.26,3.61,3.61,0,0,0,1.26-.89,1,1,0,0,1,1.16-.36,1.33,1.33,0,0,0,1.3-.33,25.2,25.2,0,0,0,1.82-1.76c.27-.3.43-.45.81,0A6.69,6.69,0,0,1,588.5,222.89Z"/><path class="cls-1" d="M656.62,209.05a2.21,2.21,0,0,1-.2-.32,1.63,1.63,0,0,0-1.22-1.12.72.72,0,0,1-.58-.76c0-.26-.06-.51-.1-.82.44,0,.85-.09,1.25-.11a.39.39,0,0,1,.3.14c.46.85,1.23.75,2,.6a10.75,10.75,0,0,0,1.7-.6c.56-.21.79-.15,1.13.35a2.41,2.41,0,0,1,.3.6,3.9,3.9,0,0,0,.75,1.35,2.58,2.58,0,0,1,.32.53c.12.29,0,.44-.28.43a10.59,10.59,0,0,1-1.38-.15c-.58-.09-1.15-.23-1.73-.34a4.54,4.54,0,0,0-1.64.11Z"/><path class="cls-1" d="M608.68,231.18c0-.74,0-1.36,0-2a1.12,1.12,0,0,1,.13-.39c.31-.62.64-1.23.94-1.85a.6.6,0,0,1,.58-.42,5.4,5.4,0,0,0,.81-.15l.46-1.77.6,0a26.34,26.34,0,0,1,.22,3c-.35.35-.68.63-.95,1s-.32.62,0,1c.09.1.19.2.28.31a.81.81,0,0,1,.14,1c-.11.25-.2.51-.3.77a.35.35,0,0,1-.47.27Z"/><path class="cls-1" d="M641.22,228.25a6.28,6.28,0,0,1,.43.49c.48.64.94,1.29,1.41,1.93a1.76,1.76,0,0,0,.86.62,5,5,0,0,1,1.81,1.08c.38.35.38.47.07.87l-.77,1c-.26-.31-.5-.56-.69-.84a.81.81,0,0,0-.91-.4,4.79,4.79,0,0,1-.57,0,3.37,3.37,0,0,0,.14.32c.14.3.3.58.43.89s.13.63-.06.71-.4-.12-.58-.24l-.08-.06a24.11,24.11,0,0,1-2.54-3c.19-.3.36-.58.55-.85a1.41,1.41,0,0,0,.25-.87c0-.37,0-.73,0-1.09a3.33,3.33,0,0,1,.1-.55Z"/><path class="cls-1" d="M651.46,161.67l1.63,2c-.47.4-.9.79-1.35,1.16l-2.48,2a1.09,1.09,0,0,1-1.38.15l-.09,0c-.66-.29-.88-.13-.8.61,0,.32.1.64.17,1.09-.52-.48-.93-.93-1.41-1.41Z"/><path class="cls-1" d="M622.37,219.9l-.57-1.22,1.2-1.21-1.06-4.92,1.46-.44a48.62,48.62,0,0,1,2.08,6.73c-.07,0-.14.08-.22.11Z"/><path class="cls-1" d="M642.6,182.17l-.62-1.52,5.79-3.45,1.76,1.69c-.49.2-1,.39-1.47.61a2.15,2.15,0,0,0-.64.42,5.24,5.24,0,0,1-3.07,1.78C643.78,181.81,643.23,182,642.6,182.17Z"/><path class="cls-1" d="M636.48,153.84c.18.52.67.74,1.07,1.12l-2.48,4.21-1-.8a36.2,36.2,0,0,1,1.6-3.25l-1.33-1.07.34-.22.58-.34c.8-.5.79-.5.6-1.41a2.43,2.43,0,0,1-.07-.66c0-.32.15-.43.46-.41a2.05,2.05,0,0,1,.56.09l2.34.83a2.47,2.47,0,0,1,.29.21,3.28,3.28,0,0,1-.4.48,3.18,3.18,0,0,1-1.4.72A1.75,1.75,0,0,0,636.48,153.84Z"/><path class="cls-1" d="M628.84,159.53a1.3,1.3,0,0,1,0,1.41,12.87,12.87,0,0,0-.69,1.33c-.17.39-.1.56.27.75a1.45,1.45,0,0,0,.29.11l.29.11-1.56,3.82a7.36,7.36,0,0,1-1.83-1.12.86.86,0,0,1-.28-1.1c.44-1,.86-2,1.3-3.05.24-.55.52-1.09.75-1.65a.62.62,0,0,1,.53-.42Z"/><path class="cls-1" d="M617.94,146.71l3.18-.12a14.61,14.61,0,0,1-.44,2.13l-1.37-.11-.4,1,1.48.48c.87.27.66.07.8.95a6.81,6.81,0,0,1,0,.78c0,.06,0,.13,0,.22l-1.65.14.06,1.2h-1.46Z"/><path class="cls-1" d="M607.79,223.37l1.64.53c0,.13,0,.25.05.36a.68.68,0,0,1-.43.83,1.18,1.18,0,0,0-.73,1c-.19,1.21-.44,2.41-.68,3.62,0,.16-.08.33-.13.54h-1.67a.92.92,0,0,1-.39-.11c-.3-.14-.38-.44-.11-.61.52-.31.53-.8.62-1.28a1.23,1.23,0,0,0-.12-.9,9.53,9.53,0,0,1-.51-1.13c-.15-.43-.11-.6.27-.84a8.45,8.45,0,0,1,1.46-.76.79.79,0,0,0,.61-.73C607.69,223.75,607.74,223.59,607.79,223.37Z"/><path class="cls-1" d="M598.72,207.8l-1.65,1.07-1.52-3c2.07-1.44,4.08-2.91,6.18-4.25a3.64,3.64,0,0,1,.85,1.33l-.51.36c-1.22.87-2.45,1.73-3.67,2.61-.65.46-.66.65-.19,1.29Z"/><path class="cls-1" d="M586.21,169.81,585,171.16l-6.39-4.69,1.59-1.77,1.09.66a7.91,7.91,0,0,0-.34.85c-.11.42,0,.7.47.75a5.16,5.16,0,0,0,1.17-.08c.19,0,.35-.08.52.08Z"/><path class="cls-1" d="M595.31,184.18,596,183l3.25,1.61a7.54,7.54,0,0,1,.47-.61c.3-.33.54-.35.84,0a9.57,9.57,0,0,1,1,1.13c.25.34.22.4,0,.72-.07.1-.16.19-.23.28a1,1,0,0,0-.16,1,8.25,8.25,0,0,1,.35,1.13c.09.4,0,.5-.42.47s-.93-.08-1.39-.13a1.87,1.87,0,0,1-.41-.09c-.39-.13-.47-.26-.35-.65s.21-.59.32-.88.16-.38.26-.61Z"/><path class="cls-1" d="M632.78,176.07l1.88,1.54-1.85,1.93L631,181.48l1.06,1.33a4,4,0,0,1-1.53,1.05l-2.22-2.62,1.56-1.19c.71-.54,1.43-1.09,2.15-1.62a.93.93,0,0,0,.4-.63C632.48,177.25,632.63,176.7,632.78,176.07Z"/><path class="cls-1" d="M656.38,189.83l.87-.17c.2.31.36.6.55.86a.8.8,0,0,0,.94.38.91.91,0,0,0,.68-.86c0-.26.06-.51.11-.83l1.06-.05,1.1-.08.1-.51,1.45.12.3,2.65-1.62.11-.88,0a.83.83,0,0,0-.65.27.59.59,0,0,1-.5.22l-3.31,0a1,1,0,0,1-.2-.06Z"/><path class="cls-1" d="M636.14,183.05a4.82,4.82,0,0,0-.46-.4.62.62,0,0,0-1.07.47,3.72,3.72,0,0,0,0,.58l-2.79,2.06-.76-.84,2.38-2.06-.66-1.09,2.8-2.71,2.12,2.86Z"/><path class="cls-1" d="M619.71,235.56l1.51.15-.1,2.52c.28.21.55.39.8.59.79.63.74.91-.19,1.31-.22.1-.44.18-.67.27v2.66l-1.87.11a7.12,7.12,0,0,1-.09-1.07c.09-1.36.2-2.72.31-4.09.05-.56.12-1.13.18-1.7C619.62,236.09,619.66,235.87,619.71,235.56Z"/><path class="cls-1" d="M615.85,173.83l.37-4.43.84-.05h.76a67.25,67.25,0,0,1,0,6.8l-2.52.2a15.87,15.87,0,0,1-.21-2.31Z"/><path class="cls-1" d="M601.5,214.63l-1.43-1.41c.15-.14.3-.3.47-.44,1.07-.9,2.13-1.81,3.21-2.69.35-.28.75-.49,1.11-.76s.72-.58,1.14-.92l1.34,1.68a6,6,0,0,1-.8,1.48l-.78-.9a7.93,7.93,0,0,0-1,.78c-1,.93-1.91,1.9-2.86,2.85Z"/><path class="cls-1" d="M594.86,185.33c.64.26,1.22.52,1.81.74a.67.67,0,0,1,.49.64c.06.65.15,1.3.23,2,0,.15.05.3.07.44l2.4.74.14.05c.73.25.73.25.67,1.12a.54.54,0,0,1-.18,0c-1.5-.36-3-.74-4.51-1.09-.32-.08-.49-.2-.49-.54a1.71,1.71,0,0,0-.1-.5c-.06-.14-.13-.33-.25-.38a1.3,1.3,0,0,1-.65-.82c-.38-.93-.38-.93.08-1.83Z"/><path class="cls-1" d="M592.93,178.19a32.2,32.2,0,0,1-3.23-3,1.09,1.09,0,0,0-.67-.43c-.44-.08-.89-.14-1.33-.19a5.12,5.12,0,0,0-.68,0,14.31,14.31,0,0,1,1.88-2.59l5.33,5.25Z"/><path class="cls-1" d="M651.73,187.82l1.06,2.81c-.14,0-.25.07-.32,0-.32-.13-.63-.29-.94-.42s-.82-.35-1.25-.47a1.53,1.53,0,0,0-1.74.7c-.17.22-.3.46-.48.74a2.89,2.89,0,0,0-3.2-.25v-1.62Z"/><path class="cls-1" d="M598.28,182.72l-1.85-1.58,1.63-2,6.1,4.62a5.93,5.93,0,0,1-.95,1.14l-1-.86c-.72-.59-1.43-1.2-2.17-1.77s-1-.52-1.58.21Z"/><path class="cls-1" d="M598.35,226.76a4,4,0,0,1-.13-1.64.85.85,0,0,1,.55-.7,8.65,8.65,0,0,1,1.39-.53,1,1,0,0,0,.72-.59c.31-.71.64-1.41,1-2.12l.29-.67,1.22.6c-.07.2-.12.36-.18.52-.62,1.44-1.24,2.88-1.84,4.33a.72.72,0,0,1-.68.52C599.9,226.54,599.15,226.66,598.35,226.76Z"/><path class="cls-1" d="M572.51,185.62c0-.51,0-1-.06-1.4a.48.48,0,0,1,.64-.49q2.25.93,4.54,1.91l-.2,1.05-1.61-.08,0-.56h-1.54l.43,1.23-3.95-.47c0-.22,0-.41,0-.59s0-.38,0-.6Z"/><path class="cls-1" d="M591.79,157.7a1.4,1.4,0,0,1,.22-.31.91.91,0,0,0,.16-1c-.22-.66-.4-1.32-.61-2l1-.64c.33-.21.68-.41,1-.61a18.48,18.48,0,0,1,1.6,4,1.29,1.29,0,0,0-.18.13L592.88,159Z"/><path class="cls-1" d="M609.19,219.2l-.22-.12c-1-.74-1.06-1-.53-2.14a15.37,15.37,0,0,1,1.17-1.94,1.93,1.93,0,0,1,1.15-.83,1.05,1.05,0,0,0,.5-.42c.28-.37.53-.76.81-1.17l1.18.2c-.06.16-.1.29-.15.41-.41.89-.81,1.79-1.24,2.67a2.93,2.93,0,0,1-.45.55.27.27,0,0,1-.08.07A4.51,4.51,0,0,0,609.19,219.2Z"/><path class="cls-1" d="M611.15,238.9l2.12-.66c.09-.86,0-1.74.09-2.65l1.16-.05.29,4.52-1.33.55a1.33,1.33,0,0,0-.84,1c-.09.48-.18,1-.29,1.49l-1-.06c.09-.32.17-.59.24-.87s.13-.61.22-.91a1.84,1.84,0,0,0-.34-1.8A4.37,4.37,0,0,1,611.15,238.9Z"/><path class="cls-1" d="M593,179.68l-1.72,1.55L591,181l-.13-.16a13.88,13.88,0,0,0-4-3.73,2.41,2.41,0,0,1-.64-.57c.39,0,.78,0,1.17,0,.54,0,1.09-.12,1.64-.16a.65.65,0,0,1,.41.11c.36.3.69.63,1,1Z"/><path class="cls-1" d="M598.2,202.58l-3.7,1.49-.34-1c.13-.08.24-.16.36-.22.67-.38,1.35-.76,2-1.13a2,2,0,0,0,1.06-1.5c0-.21.08-.41.14-.67.54,0,1.09,0,1.63,0h1.71l.41,1.1-.33.12c-.57.18-1.16.33-1.73.53a3,3,0,0,0-.74.36C598.38,201.82,598.07,202.08,598.2,202.58Z"/><path class="cls-1" d="M603.52,227.26c.37.24.72.43,1,.67s.42.55,0,.93l-.12.1c-.66.54-.83.56-1.54.09l-1.51-1,2.83-6.22.85.45C604.56,223.92,604,225.57,603.52,227.26Z"/><path class="cls-1" d="M582.44,165.08l1-1a.71.71,0,0,0-.08-1,.5.5,0,0,0-.43,0,7.68,7.68,0,0,0-.81.55c-.18.13-.34.29-.55.47l-.71-.75,2.08-1.81,3.46,3.33a8.24,8.24,0,0,1-2,1.85Z"/><path class="cls-1" d="M617,153.89a3.9,3.9,0,0,1-.73-.23c-.1,0-.17-.21-.19-.33q-.37-2.76-.74-5.54c-.07-.48-.13-1-.2-1.49.32,0,.62,0,.92,0s.58,0,.94.08Z"/><path class="cls-1" d="M619,157.29l2.59.4a8.08,8.08,0,0,1-.62,3.43c-.34.66-.57.77-1.28.52h0c-.69-.25-.69-.25-.69-1,0-.94,0-1.87,0-2.8C618.94,157.67,619,157.5,619,157.29Z"/><path class="cls-1" d="M617.85,224.81l1.45.11v6h-1.43a2.7,2.7,0,0,1-.27-1.4c0-1.1.1-2.21.16-3.31C617.78,225.78,617.82,225.34,617.85,224.81Z"/><path class="cls-1" d="M633.46,197.34l5.1-.26a7,7,0,0,1,.21,1.94c-.45,0-.87.08-1.3.1-.62,0-1.23.07-1.85.08a1.37,1.37,0,0,1-.61-.08A2.43,2.43,0,0,1,633.46,197.34Z"/><path class="cls-1" d="M650.05,185.46l1.3-.33.28,1.18-6.15,1.43,0-.1c.38-.28.75-.58,1.14-.84a1.82,1.82,0,0,0,.6-.75,5.27,5.27,0,0,1,.83-1.24,1,1,0,0,1,1.73.16C649.84,185.11,649.93,185.26,650.05,185.46Z"/><path class="cls-1" d="M595.09,161.38l-1.49-2c.83-.67,1.73-1.21,2.65-1.85l1.4,2.17Z"/><path class="cls-1" d="M653.23,197v1.7a2.18,2.18,0,0,1-.38-.26,1.58,1.58,0,0,0-1.3-.48c-1.14,0-2.28,0-3.42,0-.35,0-.56-.09-.65-.44a7.29,7.29,0,0,0-.24-.69Z"/><path class="cls-1" d="M636.67,163.58l-1.84,2c-.38-.44-.75-.85-1.08-1.28a.56.56,0,0,1,0-.39c0-.38.13-.75.2-1.12a.49.49,0,0,1,.81-.35Z"/><path class="cls-1" d="M641.21,175.22l-.76-.95,2.22-2.84.83,1.34Z"/><path class="cls-1" d="M581.45,191.29l2.43-.12v1.64l-2.66.29A16.29,16.29,0,0,1,581.45,191.29Z"/><path class="cls-1" d="M636.87,226l-1.07.83c-.5-.89-1-1.72-1.48-2.6l1.47-.48Z"/><path class="cls-1" d="M652.8,200.14l-1.29,4.27-.64-.31a33.48,33.48,0,0,1,1-4.23A1.3,1.3,0,0,1,652.8,200.14Z"/><path class="cls-1" d="M585.13,193.08a5.37,5.37,0,0,1,.73-1.61c.19-.26.35-.31.62-.13a4.22,4.22,0,0,1,.82.69,1.19,1.19,0,0,1,.15.58c0,.22,0,.44.08.72A21.45,21.45,0,0,1,585.13,193.08Z"/><path class="cls-1" d="M583.24,183.39A22.49,22.49,0,0,1,586,183a1.17,1.17,0,0,1-1,1.34c-.3,0-.61.09-.91.15a.36.36,0,0,1-.47-.21Z"/><path class="cls-1" d="M352,363.12h-5.81a1.54,1.54,0,0,0-.28-.34,94.32,94.32,0,0,1-14.4-11.57c-5-4.8-9.53-9.93-12.59-16.22a1.33,1.33,0,0,0-.21-.26l-.26,0a24.38,24.38,0,0,0,.21,3.21,59.42,59.42,0,0,0,10,22.41l.72,1c-.68-.14-1.05-.21-1.42-.3a75.67,75.67,0,0,1-21.75-8.71,4.63,4.63,0,0,1-1.6-1.57,135.77,135.77,0,0,1-10.38-23.24,57.48,57.48,0,0,1-3.48-16c0-.85,0-1.7,0-2.56a3,3,0,0,0-1,1.34,38.35,38.35,0,0,0-1.58,5.27c-1.05,6.13-.85,12.3-.49,18.48,0,.65,0,1.31,0,2l-.22.1c-1-1.38-2-2.74-2.91-4.16-9.46-14.66-10.75-30.09-4.13-46.16,3-7.26,8-13.09,13.79-18.26,4.62-4.14,9.41-8.07,14-12.2a27.59,27.59,0,0,0,7.57-9.93c2-4.75,1.79-9.33-1.09-13.69a27.24,27.24,0,0,0-13.41-10.67,12,12,0,0,0-6-.71,18.86,18.86,0,0,0-12.59,7.6,11.55,11.55,0,0,0-2.46,8.15c.59,8.43,7,14.07,15.3,13.23a10.5,10.5,0,0,0,9.5-7.5,8.45,8.45,0,0,0-2.92-9.2c-2.86-2-7.22-2.09-9.85-.13a6,6,0,0,0-2.56,6.09c.37,2.37,1.95,3.7,4.16,4.38.22.07.44.19.71.3a5.63,5.63,0,0,1-7.61-2.14,11.9,11.9,0,0,1-.91-8.49,8.92,8.92,0,0,1,5.19-6.37,13.92,13.92,0,0,1,9.54-.88,11.4,11.4,0,0,1,8.27,7.21c1.51,3.78,1.29,7.6.32,11.43-1.58,6.18-5.57,9.8-11.83,10.92a25.14,25.14,0,0,1-10.47-.37A16.57,16.57,0,0,1,275,244a24.85,24.85,0,0,1-1.4-12.11c1.07-9.13,5.92-15.2,14.61-18.2a30.53,30.53,0,0,1,13.29-1.22l3.79.42c1.07-11.17,8.19-15.07,18.28-15.43a2.62,2.62,0,0,0,0-.42,10.54,10.54,0,0,1,6.18-11.83c5.92-2.49,11.71-2.18,17.18,1.39a23.9,23.9,0,0,1,6.11,6.29c.27.38.57.75.91,1.2l.94-1c6-6.35,13.26-9.23,22-7.85a12.24,12.24,0,0,1,4.5,23c-3.94,2.25-8.36,1.95-11.38-.75a5.29,5.29,0,0,1-1.8-5.75c.71-2.46,2.57-3.8,4.85-4.93a2.69,2.69,0,0,1-.12.35,2.37,2.37,0,0,1-.27.28,7.3,7.3,0,0,0-2.24,4.61,3.15,3.15,0,0,0,1.22,3,5.64,5.64,0,0,0,6.38.54,6.29,6.29,0,0,0,3.9-6,6.42,6.42,0,0,0-5-6.37,11.75,11.75,0,0,0-12.08,3c-6.6,6.34-9.12,14.36-8.86,23.36a11.68,11.68,0,0,0,.39,1.9c3-1.12,5.8-2.25,8.66-3.22,4.06-1.39,8.08-3.1,12.26-3.86a142.8,142.8,0,0,1,15.5-1.41c3.57-.24,7.15-.23,10.73-.46a15.52,15.52,0,0,0,6.78-1.78,3.51,3.51,0,0,0,1.27-5.36,6.57,6.57,0,0,0-1.27-1.46,15.43,15.43,0,0,0-8.91-3.61,9.93,9.93,0,0,0-4,.77c-1.52.56-1.68,1.8-.46,2.84a22.06,22.06,0,0,0,2.83,1.83c.26.16.55.27.89.44a1.64,1.64,0,0,1-.34.23,6.17,6.17,0,0,1-8.13-5.18,4,4,0,0,1,2.6-4.57,13.38,13.38,0,0,1,3.66-.8,23.53,23.53,0,0,1,8.7,1,15.56,15.56,0,0,1,10.49,9.44c1.3,3.29.31,6.13-2.68,8a11.43,11.43,0,0,1-2.16,1.07,30.94,30.94,0,0,1-9.77,1.72c-.33,0-.66.05-.94.08l3.45,5.74a27.59,27.59,0,0,1,13-1.49c4,.52,7.52,1.89,10.12,5.1,4.74,5.85,3.54,16.8-2.32,21.51-.34.28-.69.54-1.15.89.19.13.31.19.41.27a21,21,0,0,1,7.22,10.55c.57,1.74.93,3.55,1.39,5.33v3.11a2.35,2.35,0,0,0-.17.44,16.91,16.91,0,0,1-9.56,12.63,7.07,7.07,0,0,1-4.21.84c-4.7-.68-8.56-6-7.77-10.63a6.82,6.82,0,0,1,9.67-4.79,7.09,7.09,0,0,0-.92.36,23.3,23.3,0,0,0-3.68,2.27c-2.29,2-1.87,5.13.77,6.69,2.08,1.23,4.06.75,5.92-.48A10.2,10.2,0,0,0,425.93,260a17.1,17.1,0,0,0-14.86-5c-2.52.31-5,.71-7.1,2.28a1.85,1.85,0,0,0-.77,1.55,46.72,46.72,0,0,1-.62,7.31c-2.27,10.61-8.46,17.82-18.92,21a15.92,15.92,0,0,1-12.26-.69c-5.73-2.87-9.3-9.79-8.56-16.46a9.3,9.3,0,0,1,5.3-7.71A17.89,17.89,0,0,1,379.29,261a3.35,3.35,0,0,1,.73.35,17.41,17.41,0,0,0-2,.47,51.06,51.06,0,0,0-5.21,2,6.77,6.77,0,0,0-3.66,4.09,11.54,11.54,0,0,0,1.18,9.62A9,9,0,0,0,381,281a21.67,21.67,0,0,0,11.25-9.35,17.25,17.25,0,0,0,2.73-8.87c.18-7.72-5.37-15.59-13-18.35a29.56,29.56,0,0,0-16.69-.87c-7.91,1.73-14.62,5.75-20.6,11a69.53,69.53,0,0,0-19.8,29c-2.73,7.62-3.9,15.37-1.89,23.41a48.83,48.83,0,0,0,38.5,37.4,70,70,0,0,0,21.65,1.31c9.57-.9,18.24-4,25.41-10.66a29.25,29.25,0,0,0,7.54-10.67,6.44,6.44,0,0,0-1-6.5,3,3,0,0,0-3.47-1.29,24.56,24.56,0,0,0-2.66,1.06,4.46,4.46,0,0,1,6.26-1.69,7,7,0,0,1,3.38,6,15.65,15.65,0,0,1-2.52,9.4,68.21,68.21,0,0,1-8.73,10.09,66.65,66.65,0,0,1-24.91,16.13,91.05,91.05,0,0,1-23.69,5.05Zm67.18-127.55-.17.19c-.51-.18-1-.4-1.54-.53a6,6,0,0,0-6.45,2,5.28,5.28,0,0,0-.53,6.32c.38.72.83,1.38,1.25,2.07a1.54,1.54,0,0,0,1.54.74c2,0,3.92.09,5.89.12a1.69,1.69,0,0,0,1-.21c3.44-2.51,5.6-5.73,5.59-10.18,0-5.2-2.76-8.41-7.88-9.07A16.85,16.85,0,0,0,407,229.72a5.87,5.87,0,0,0-2,1.46,34.38,34.38,0,0,1-8.22,8.28,1.26,1.26,0,0,0-.35,2c1.42,2.27,2.81,4.55,4.24,6.82.12.19.46.42.63.38,1.88-.44,3.73-.94,5.67-1.44-.19-.28-.35-.52-.5-.76-3.36-5.44-1.84-10.87,3.93-13.62a4.32,4.32,0,0,1,2.15-.39,11.2,11.2,0,0,1,5.21,1.93A16.6,16.6,0,0,1,419.21,235.57Zm-81.94-29.16.39.7c2.11,3.89,3.46,7.93,2.58,12.45-1,5.25-5.13,9.41-10.4,9.68a1.67,1.67,0,0,0-.34.11l1.54,4.19a59.38,59.38,0,0,1,11.54-6.23,1.22,1.22,0,0,0,.83-1.4c-.19-4.42-.34-8.85-.48-13.27a3.13,3.13,0,0,1,.24-1.5c1.17-2.23,2.46-4.4,3.59-6.65a7.09,7.09,0,0,0,.75-2.74,10.35,10.35,0,0,0-2.72-7.56c-3.08-3.52-6.85-5.58-11.66-5.08a5.5,5.5,0,0,0-4.79,3.72,8.47,8.47,0,0,0-.23,5.15,1.28,1.28,0,0,0,.62.78,18.58,18.58,0,0,1,6.22,4.53.84.84,0,0,0,.64.25,3.23,3.23,0,0,0,2-4.58,6,6,0,0,0-3-2.47l-.79-.35.08-.32c1.08.07,2.17.05,3.23.22a3.67,3.67,0,0,1,3.34,3.68A7.09,7.09,0,0,1,337.27,206.41Zm23.53,25.48.11.31c.9-.11,1.81-.18,2.71-.35a33.23,33.23,0,0,1,11.24-.64c2.8.44,5.54,1.22,8.31,1.77,1.76.34,3.59.94,5.31.74,4.55-.53,7.35-3.57,9.33-7.46a3.79,3.79,0,0,0-1.2-4.83,7.39,7.39,0,0,0-4.77-1.58,3.69,3.69,0,0,0-3.61,2,4.05,4.05,0,0,0,.45,4.3c.13.2.27.41.52.76a6.23,6.23,0,0,1-3.39-1.4c-1.69-1.4-1.28-3.27-1-5.18-.33.12-.51.17-.68.25-6.31,2.88-12.63,5.74-18.92,8.64-1.22.57-2.37,1.31-3.54,2A7.58,7.58,0,0,0,360.8,231.89Zm-29.51-15.36c-1.23-2-2.52-2.39-4.62-1.45a7,7,0,0,0-3.44,3.14,3.41,3.41,0,0,0,.92,4.67,15.89,15.89,0,0,0,3.77,2.11,4,4,0,0,0,5.12-1.79,10.21,10.21,0,0,0,1.08-2.26c2.3-6.5-2.13-13.2-6.54-15.8a8.09,8.09,0,0,0-8.82-.06c-2.92,1.78-4,4.61-3.86,7.95a4.55,4.55,0,0,0,3.72,4.63c.09-.31.17-.62.26-.93a7.69,7.69,0,0,1,10.2-5A3.66,3.66,0,0,1,331.29,216.53Z"/><path class="cls-1" d="M274.58,471.8c-3.82,4.34-7.13,8.15-10.49,11.91-3.76,4.21-3.78,4.18,1.25,7.13,4.46,2.62,8.91,5.27,13.82,8.17l-18.27,10.72a76.94,76.94,0,0,0-7.45-42.48Z"/><path class="cls-1" d="M102.52,499c5.69-3.37,10.92-6.57,16.27-9.57,2.18-1.22,2.14-2.13.52-3.87-4-4.3-7.8-8.76-12.19-13.73l21.08-4.61c-6.32,13.64-9.14,27.39-7.42,42.46Z"/><path class="cls-1" d="M128.25,467.31l-9.06-20.18,22,1.88A88.74,88.74,0,0,0,128.25,467.31Z"/><path class="cls-1" d="M262.45,447.23l-9,20a92.5,92.5,0,0,0-12.76-17.88A201.8,201.8,0,0,1,262.45,447.23Z"/><path class="cls-1" d="M138.83,427.48,158.56,436c-6.28,3.85-11.83,7.61-17.26,13.16Z"/><path class="cls-1" d="M242.82,427.47c-.81,7.38-1.54,14-2.35,21.4-5.56-4.92-10.78-9.16-17.46-12.82Z"/><path class="cls-1" d="M163.26,414.71l16.41,14.06a89.38,89.38,0,0,0-20.53,7C160.57,428.46,161.84,422,163.26,414.71Z"/><path class="cls-1" d="M222.55,435.73a83.24,83.24,0,0,0-20.66-6.88c5.43-4.63,10.26-8.75,15.1-12.86,1.14-1,1.64-.44,1.88.81C220,422.81,221.2,428.81,222.55,435.73Z"/><path class="cls-1" d="M201.41,428.81c-7.39-.94-13.87-1.26-21.29.26,3.59-6.27,6.64-11.54,9.64-16.85.87-1.54,1.47-1.22,2.22.09C194.92,417.51,197.91,422.69,201.41,428.81Z"/><path class="cls-1" d="M255,504.67c0-1.79-1.17-2.27-2.4-2.91-3.7-1.89-7.37-3.83-11.46-6,4-2.89,7.44-5.66,11.16-7.94,2.8-1.72,1.77-4.17.92-5.68-1-1.82-2.48.35-3.57,1-4.87,2.79-9.36,7.28-14.53,8.27-7.45,1.43-15.38.37-23.64.37,6.45-4.52,12.58-8.8,18.69-13.11,1-.69,2.09-.58,3.16-.74,5.81-.85,11.75-.42,17.54-1.7-1.21-4.72-1.21-4.73-5.54-4.73h-12.2c2.35-4.64,4.16-8.64,6.35-12.41,1.46-2.52-.35-3.78-1.69-4.71-1.94-1.34-1.94,1.17-2.56,2.05a38.11,38.11,0,0,0-4,6.71c-4.88,11.63-17,13.57-26,20.57,5.24-15,12.33-27.58,27.66-33.2-4-4.35-4-4.27-8-2.1-3.21,1.72-6.13,4-9.89,5.19-.34-4.49-.89-8.72-.9-13,0-3.06-2.18-3.49-4-3.55-2.14-.06-.9,2.09-1.14,3.24a18.37,18.37,0,0,0-.06,2.88c-.21,4.66,1.28,9.76-.65,13.88-3.3,7-7.85,13.41-12.2,20.62-2.36-15.41-2.73-29.68,8-41.55-3.91-2.7-5.86-1.75-7.49,1.55-1.53,3.13-3.62,6-5.71,9.38-2.54-4.14-4.84-7.69-6.93-11.36-1.39-2.44-3.09-1.1-4.6-.55-2.25.81-.17,1.94,0,2.88a6.16,6.16,0,0,0,1.12,2.19,34.82,34.82,0,0,1,6.28,26.38c-.5,3.37-.42,6.83-.64,10.92-8.59-11.59-15.86-22.65-13.28-37.13.07-.4,0-.82,0-1.23.18-2.17-.56-2.48-2.64-1.83s-2.42,1.72-2.52,3.57c-.22,4.17-.65,8.34-1,13-3.66-2.06-7-3.66-10-5.72-3.2-2.19-5.35-1.65-7.19,1.83,4.22,2.88,8.42,5.71,12.57,8.61,1.66,1.16,3.7,1.94,4.67,3.91,3.31,6.71,6.58,13.44,10,20.42-14.32-6.17-26.48-14.16-31.31-29.69-4.07,2.44-4,4.81-2.15,7.69,1.32,2.07,2.15,4.46,3.43,6.56,1.75,2.86,1.8,4.31-2.24,4-3.27-.27-6.59.09-9.88-.11-2.8-.17-3.23,2-3.53,3.68-.42,2.37,1.82,1.29,2.87,1.51a18.64,18.64,0,0,0,5.72.59c13.24-1.5,20.66,8.64,30.82,14.54-15.8,2.07-29.9.23-41.28-11.21-2.21,4.42-1.27,6.69,2.12,8.6,3.18,1.79,6,4.25,9.32,6.66-4.3,2.23-8.12,4.34-12.06,6.2-2.67,1.26-2.15,3.68-1.55,5.29s2.38.07,3.44-.38c5.31-2.26,10.68-4.37,16.37-5.32,16.49-2.76,33.77,5.31,34.62,25.57.71,16.94-8.91,31.49-24,35.59-4.94,1.33-10,1.1-15.07,1.74,7.38,7.58,15.24.75,23.35.57-3.1,4.8-8,6.41-12.7,9.61,8.62,2.8,11.86-5.84,19-7.68-3.33,4.17-6,7.46-8.59,10.79-.4.51-1.59,1-.54,1.89.73.59,1.67,1.24,2.63.66.66-.4,1.05-1.23,1.63-1.8,1.12-1.09,1.86-3.23,3.77-2.6s2.17,2.78,1.86,4.58c-.43,2.58.9,3.2,3,3.74,2.57.65,4.36.32,6.07-1.92,3-4,3.87-3.86,5.34.76.86,2.68,2.43,2.77,4.61,2.78,2.68,0,2.51-2.23,3.06-3.71,1.17-3.17,2.56-3.24,4.51-.72a24.14,24.14,0,0,0,1.81,2.23c2.14,2.14,4.39.41,6.57.06s1.24-2.13,1.29-3.33c.08-1.84,0-4,2-4.51,1.81-.47,2.68,1.55,3.72,2.76,1.91,2.23,1.89,2.25,4.53.3-2.72-3.86-6.37-7.09-8.17-11.65a93.35,93.35,0,0,1,8.16,5.64c4.75,3.38,6.17,3.51,8.53,1.12-3.94-2.71-8.79-4.3-12-9.71,6.2,1.83,11.39,3.46,16.87,3.79,3.26.19,5.46-.9,7.09-4.26-2.91,0-5.48.16-8,0-13.68-1-23.54-7.44-28.6-20.55a47.55,47.55,0,0,1-2.66-12c-1.77-16.22,9.15-29.07,25.45-30.14,9.24-.6,17.57,2.37,25.75,6C254.73,508.53,255,507.33,255,504.67Zm-80.15,66.19c.87-3,1.51-3.52,5.36-4.23C179.2,569.22,176.69,569.45,174.83,570.86Zm2.82,9.61c-1.59-4.84-.4-6.9,5.55-9.05C181.59,575,180.32,578.12,177.65,580.47Zm13-1.47c-3.17-5.48-3.16-6.11-.15-11.11C194.27,571.62,194.34,573.81,190.69,579Zm11.37-12.66a6.31,6.31,0,0,1,5.05,4.72l-5.73-3.6Zm2.41,14.17c-3.42-2-4-5.71-6.6-9.28C204.09,573.39,205.18,575.09,204.47,580.51Z"/><path class="cls-1" d="M110.39,746.91c9.61,1.45,18.73,2.71,27.8,4.26a4.57,4.57,0,0,0,5.12-1.91c1.65-2.07,1-3.49-.09-5.37-4.56-7.89-9-15.85-13.45-23.8a18.23,18.23,0,0,1-.93-2.37,14.67,14.67,0,0,1,2.59.9c8.18,4.79,16.33,9.63,24.51,14.43,1.35.8,2.92,2.27,4.29.46a6.14,6.14,0,0,0,1-4c-1.32-11-2.8-22.08-3.81-33.35l12.91,17.71c2.54,3.49,5,7,7.63,10.43.6.79,2,1.88,2.47,1.66a4.2,4.2,0,0,0,2.18-2.59c2.42-11.12,4.69-22.26,7-33.39.06-.32.21-.61.86-1,.95,4.13,1.93,8.26,2.85,12.4,1.59,7.15,3.09,14.33,4.79,21.46.28,1.16,1.4,2.12,2.12,3.17a12,12,0,0,0,2.79-2c6.13-8.22,12.17-16.51,18.26-24.78a7.3,7.3,0,0,1,2.57-2.32c-.6,4.75-1.16,9.5-1.81,14.24-.87,6.27-1.9,12.52-2.65,18.8a5.42,5.42,0,0,0,1.24,3.48c1.16,1.53,2.56.84,4,0,8.47-5.06,17-10,25.47-15.06.62-.37,1.26-.71,2.67-1.48-.88,1.78-1.35,2.85-1.92,3.86q-6.71,11.91-13.43,23.81c-.67,1.18-1.69,2.32-.36,3.74s1.82,3.07,4.44,2.63c8.47-1.4,17-2.45,25.51-3.64a4.47,4.47,0,0,1,2.52.21q-7,6-13.92,11.93c-1.83,1.56-3.66,3.13-5.52,4.66-3.52,2.89-3.91,4.11-1.93,8.25a4.92,4.92,0,0,0,2.86,2c7,2.12,14,4.11,21.07,6.16,1,.28,1.88.65,3.33,1.15-8.22,2.49-15.91,4.89-23.66,7.11-2,.56-2.79,1.35-3.1,3.5a58.53,58.53,0,0,1-16.27,33.16c-1.33,1.37-1.25,2.41-.56,4,2,4.51,3.68,9.14,5.6,13.68.63,1.48.74,2.59-.81,3.49-5.1,3-10.16,6.07-15.31,9-1.48.84-2.46.46-2.85-1.56-2.12-11.18-4.45-22.31-6.55-33.5-.22-1.16.57-2.51.93-3.77a1.28,1.28,0,0,1,.51-.55c9.7-7,10.33-18.28,13.4-28.4a4.38,4.38,0,0,0-.1-1.47,7.6,7.6,0,0,0-1.69.42c-6.65,3.37-13.33,6.69-19.89,10.23a6.06,6.06,0,0,1-6.34.07c-3.92-2-8.07-3.64-12-5.69-5.93-3.11-12-5.23-18.85-4.3a4.09,4.09,0,0,1-1.88-.1c-.49-.19-.83-.76-1.24-1.16.46-.47.87-1.22,1.4-1.33a18.44,18.44,0,0,1,3.41-.07c4.43,0,8.87-.1,13.3,0,2.18.07,2.9-.73,2.8-2.85-.13-2.78-.11-5.58,0-8.37.07-1.88-.46-2.73-2.53-2.71q-14.44.12-28.89,0c-1.83,0-2.76.37-2.72,2.5.13,6.35-.07,12.7.14,19a8.53,8.53,0,0,0,1.94,4.32c4.91,6.61,10,13.11,14.88,19.72a4.82,4.82,0,0,1,1,3.35c-2.32,11.4-4.87,22.75-7.16,34.15-.48,2.39-1.3,2.79-3.23,1.67q-7.18-4.19-14.35-8.39c-1.63-.95-1.63-2.13-1-3.84,1.76-4.6,3.14-9.35,4.9-14,.74-1.91.64-3.17-.83-4.71A55.58,55.58,0,0,1,132.49,792c-.26-2.19-1.67-2.58-3.23-3.07-7.1-2.25-14.2-4.46-21.29-6.73a7.87,7.87,0,0,1-1.66-1,13.3,13.3,0,0,1,1.65-.72c7.28-2,14.53-4.25,21.88-6,2.9-.7,3.16-2.59,3.88-4.81s-.67-3.16-2-4.3q-9.78-8.16-19.51-16.38A21,21,0,0,1,110.39,746.91Zm87.27,19.28c0,4.68.09,9.36,0,14-.06,2.19.78,2.87,2.86,2.78,2.9-.13,5.81-.11,8.71,0,2,.07,3-.44,3-2.72-.09-9.36-.07-18.72,0-28.09,0-2-.84-2.64-2.73-2.59-3,.09-6.07.14-9.09,0-2.26-.1-2.76.92-2.71,2.93C197.72,757.08,197.66,761.63,197.66,766.19Zm-2.77-2.76c0-5.69-.07-11.39,0-17.09,0-2-.66-2.63-2.61-2.56-3.4.12-6.82.14-10.23,0-2-.09-2.58.71-2.54,2.63.1,5.18,0,10.38,0,15.57,0,6,0,6.12,6,6.26,2.14,0,2.51.91,2.46,2.72-.08,3,.17,6.09-.07,9.11s1.42,2.95,3.49,2.94,3.65.14,3.51-2.87C194.71,774.58,194.89,769,194.89,763.43ZM214.48,768c0,1.78-.06,3.55,0,5.32.14,3.12.36,6.23.54,9.35,3.15.1,6.3.07,9.43.33,2.69.22,3.14-1.07,3.08-3.37-.12-5.33,0-10.65,0-16,0-3.14-.2-6.28-.31-9.43-3.36-.17-6.73-.26-10.08-.55-2.35-.21-2.71.94-2.65,2.92C214.56,760.41,214.48,764.22,214.48,768Zm-53.34-9.29c0,2.41.08,4.82,0,7.23-.08,1.85.71,2.4,2.46,2.36,3.8-.09,7.6-.07,11.39,0,1.59,0,2.29-.54,2.27-2.19,0-4.69-.06-9.38,0-14.07,0-1.84-.8-2.46-2.52-2.43-3.79,0-7.59.06-11.39,0-1.65,0-2.25.67-2.21,2.27C161.19,754.17,161.14,756.45,161.14,758.73Z"/><path class="cls-1" d="M409.47,970.05c-.12.68-.23,1.37-.37,2.05a9.05,9.05,0,0,1-3.78,5.84c-1.19.85-2.44,1.63-3.63,2.49a2.84,2.84,0,0,0-1.22,2.33c0,.89.53,1.25,1.22.66a25.15,25.15,0,0,0,2.75-2.9,9.33,9.33,0,0,0,.93-1.65,3,3,0,0,1,.1.54c-.06,1.68-.06,3.36-.2,5a5.21,5.21,0,0,1-3.22,4.66,4.38,4.38,0,0,0-2.3,2.41c-.32.74-.07,1.08.75,1a5.11,5.11,0,0,0,2.94-1.6,4,4,0,0,1,.57-.52,5.11,5.11,0,0,1-1.79,3.14c-1.16.9-2.44,1.64-3.68,2.42-1.6,1-3.28,1.86-4.81,3a12.58,12.58,0,0,0-4,5.09l-.33.69h-.23a7.48,7.48,0,0,1-.18-1.48c.09-1.13.21-2.27.41-3.39.46-2.45-.14-4.84-.33-7.25-.12-1.51,0-3,0-4.56a2,2,0,0,1,.15-.48c.58,1.11.22,2.52,1.53,3.37.86-3.62,4-5.93,4.84-9.42l-3.51.76-.09-.31a3.74,3.74,0,0,1,2.83-1.31c.41,0,1,.23,1.14-.45,0,0,.24,0,.35,0a4,4,0,0,0,4.34-2.31,17.82,17.82,0,0,0,2.12-10,1.11,1.11,0,0,0-.07-.46c-.18-.28-.4-.54-.6-.82-.3.24-.73.42-.86.73a20.52,20.52,0,0,0-.67,2.23,3.09,3.09,0,0,1-2.4,2.28c-.75.18-1.51.35-2.27.5a7.57,7.57,0,0,0-4.76,2.31l-.22-.06a28,28,0,0,1,.89-3,10.17,10.17,0,0,1,3.68-4.2c1.27-.94,2.57-1.84,3.78-2.84a7.5,7.5,0,0,0,2.7-5.72,4.36,4.36,0,0,1,.48-1.75,7.12,7.12,0,0,0,.46-4.63,19.54,19.54,0,0,0-2.4-6.27,2.14,2.14,0,0,1-.13-1c0-.56.09-1.11.12-1.5,3.06,3.1,6.17,6.39,6.78,11.17.21,1.65.3,3.31.58,4.93.44,2.62,1,5.22,1.53,7.82Z"/><path class="cls-1" d="M339.08,966.81c-2.52.25-3.87-1.51-5.6-3,.14,1.16.26,2.12.38,3.07.15,1.11.33,2.21.4,3.32a1.35,1.35,0,0,1-.42,1c-1.79,1.35-3.62,2.65-5.46,3.94-.64.45-1-.18-1.49-.46s-.32-.61-.13-1a11.67,11.67,0,0,0,1.15-7.39,3,3,0,0,0-1.09-1.72,5.32,5.32,0,0,1-1.47-1.81,9.17,9.17,0,0,0-5.33-5.53c-3.58-1.31-4.74-4.16-5.17-7.6a29.49,29.49,0,0,1,1.32-12.79,23.66,23.66,0,0,0,1.22-7.56,6.84,6.84,0,0,1,.66-2.27c.15-.41.56-.73.66-1.14.79-3.19,3.44-5,5.44-7.26A2.75,2.75,0,0,0,325,917a1.48,1.48,0,0,1,1.1-1.44,3.41,3.41,0,0,1-.06.51c-.08.38-.33.79-.25,1.13.52,2.22-1,3.71-1.85,5.45a4.53,4.53,0,0,0-.4,2,2.25,2.25,0,0,1-.61,2,2.1,2.1,0,0,0-.51,1.25,11,11,0,0,0,1.18,6.76,4.16,4.16,0,0,1,.28,1.89,3.84,3.84,0,0,0,3.18,4,24.18,24.18,0,0,1,2.39-7.13,108.66,108.66,0,0,1,7.28-12.19,2.82,2.82,0,0,1,.26-.32c-.26,1.39-.58,2.71-.74,4.06a16.91,16.91,0,0,0,.2,6.18,7.09,7.09,0,0,0,.68,1.72,6.09,6.09,0,0,0,1.05,1.08c.19-1.12.33-2,.51-2.88a33.63,33.63,0,0,1,6.39-13.41c1.23-1.66,2.52-3.28,3.78-4.92a5.4,5.4,0,0,0,.58-.91c.41-.82.25-1.1-.8-1.21,1.6-3.29,3.76-6.26,4.74-9.81.84,3.39,2.76,6.24,4.29,9.26a25.62,25.62,0,0,1,.94,2.63,21.91,21.91,0,0,0,3.47,6.12,18.94,18.94,0,0,1,2.81,5c.7,1.75,1.54,3.46,2.16,5.24a16.82,16.82,0,0,1,.7,3.4c.14,1,.14,2,.21,3.19a4.6,4.6,0,0,0,.7-.65,16.19,16.19,0,0,0,2.47-6.32,6.13,6.13,0,0,0-.33-2.2,6.41,6.41,0,0,1,.72-4.86,7.18,7.18,0,0,1,.43-.58c.1.84.16,1.51.26,2.18a15.51,15.51,0,0,0,4.7,8.73,23.75,23.75,0,0,0,1.85,1.77,8.17,8.17,0,0,1,2.66,4.53,4,4,0,0,0,.41,1.16c.15.23.56.48.76.42s.58-.56.52-.71c-.47-1.09.58-2,.3-3.07,0-.13.13-.33.23-.47a8.68,8.68,0,0,0,1.33-7.18,65.4,65.4,0,0,0-2.1-6.49c-.21-.58-.82-1-1.17-1.57a1.06,1.06,0,0,1-.11-.9c.72-1,.76-1.2.08-2.2-.16-.23-.34-.45-.54-.72a.84.84,0,0,1,1.28.17,2.52,2.52,0,0,1,.46,1.05,5.75,5.75,0,0,0,1.71,3,22,22,0,0,1,4.54,6.9,11.61,11.61,0,0,1,.84,3.45,37,37,0,0,0,1.19,6.95,36.49,36.49,0,0,1,1,11.55c-.31,3.5-1.73,6.22-4.92,7.92a14.7,14.7,0,0,0-6.28,6.16,3.85,3.85,0,0,1-.74.88,5.68,5.68,0,0,0-1.74,3.87c0,.41,0,.83-.07,1.24-.18,1.31-.29,2.59,1.33,3.2a3.05,3.05,0,0,1-.38.4c-.42.33-.39.58.06.89a4.61,4.61,0,0,1,.75.83l-.16.23a2.9,2.9,0,0,1-.79-.09,3.73,3.73,0,0,1-1.39-.8,17.15,17.15,0,0,0-5.17-4.26,1.11,1.11,0,0,1-.35-.83c0-1.47,0-3,0-4.5-1.43,1.31-3,2.59-5.21,2.81a2.49,2.49,0,0,1,1.43-1.94c1-.43,2.07-.61,3.07-1a19.39,19.39,0,0,0,3.51-1.65c1-.67,1.19-1.94,1.34-3.11a8.67,8.67,0,0,0-.61-4.17,13.4,13.4,0,0,1-.8-3.29,7.93,7.93,0,0,0-1.95-4.39c-.81-1-1.52-2-2.3-3a2.51,2.51,0,0,0-.65-.42c-.13.23-.37.47-.36.69a3.55,3.55,0,0,0,.33,1.08c.27.66.58,1.3.83,2a3.1,3.1,0,0,1-.83,3.83.48.48,0,0,0-.16.26c-.11,1.06-.89,1-1.68,1.11a16.12,16.12,0,0,0-2.67.42,24.83,24.83,0,0,0-2.62,1c-.15-.64-.35-1.31-.48-2a1.77,1.77,0,0,0-1.32-1.62c-.59,3.46-2.29,5.25-5.6,5.87a3.26,3.26,0,0,1,.93-2.89,18.54,18.54,0,0,1,2.33-1.77c1.63-1.16,3.33-2.22,4.89-3.46,2.08-1.66,2.32-4,2.13-6.49a17.76,17.76,0,0,0-4.13-9.79,5.76,5.76,0,0,1-1-2,8.09,8.09,0,0,0-2.48-4,6,6,0,0,1-.9-1,9.44,9.44,0,0,0-4.39-3.2,3,3,0,0,1-1.79-1.44,1,1,0,0,0-1.52-.55c.48,1,.25,2.29,1.57,2.9a2.4,2.4,0,0,1,.85,1c.59,1.06,1.05,2.2,1.71,3.2a2.19,2.19,0,0,1,.24,2.26,18.15,18.15,0,0,1-1,1.86,1.38,1.38,0,0,0,0,1.71c.37.54.2.79-.39,1.1a22.48,22.48,0,0,0-2.6,1.77c-1.33,1-2.59,2-4,2.92a12.62,12.62,0,0,0-4.86,4.56,10.81,10.81,0,0,0-1.16,7,11.52,11.52,0,0,0,1.33,2.82,6.84,6.84,0,0,1-5.16-2.14,3.12,3.12,0,0,1-.47-3.08c.37-1,.78-2,1.08-3a5.14,5.14,0,0,0,0-1.41l-.38-.15a38.79,38.79,0,0,0-2.78,3,17.08,17.08,0,0,0-3.81,11.46,11.37,11.37,0,0,0,.81,3.37,3.18,3.18,0,0,0,2.52,1.93A27.26,27.26,0,0,1,337.3,965,3.34,3.34,0,0,1,339.08,966.81Z"/><path class="cls-1" d="M342,973.7c.76.75,1,.69,1.43-.37a19.54,19.54,0,0,0,6.5-1.38,3.51,3.51,0,0,1,1.07,0,13.34,13.34,0,0,0,2.52.09,8.15,8.15,0,0,1,2.83,0,4.94,4.94,0,0,0,2,0,4.84,4.84,0,0,1,2.56.18c1.78.51,3.59.89,5.58,1.36.42.81.57.86,1.3,0l3.45,2.28a9.66,9.66,0,0,0,1.19.72,10.17,10.17,0,0,1,4.26,4.06,29.69,29.69,0,0,0,2.24,3.25,20.51,20.51,0,0,1,4.67,13.19,38.76,38.76,0,0,1-6.42,21.86,11.52,11.52,0,0,1-.79,1.05,1.06,1.06,0,0,1-.23.19c-1-.46-1.21-.41-2,.42-.32.34-.66.66-1,1-.83.84-.82,1.21.12,1.93a2.42,2.42,0,0,1-1.54,1.6c-1.17.39-2.39.63-3.59.92s-2.49.47-3.67.88a28.52,28.52,0,0,1-19.8-.25,32.54,32.54,0,0,0-3.86-.77,14.06,14.06,0,0,1-2.87-.89,7.6,7.6,0,0,1-1.52-1.35c1.08-.92,1.09-1.22.23-2.1l-1.16-1.15c-.67-.66-.91-.69-1.85-.2-.3-.38-.66-.76-.93-1.18-4.23-6.67-6.72-13.85-6.47-21.84.1-3.18.4-6.32,1.95-9.18a31.85,31.85,0,0,1,1.83-2.88q2.14-3.13,4.37-6.22a4.15,4.15,0,0,1,1.08-1.09C337.65,976.47,339.85,975.09,342,973.7Zm-4.48,27.49a23.12,23.12,0,0,0,3,11.6,12.24,12.24,0,0,0,3.53,4.07,2.65,2.65,0,0,0,3.8-.15c.69-.57,1.28-1.28,2-1.82a20.58,20.58,0,0,1,2.51-1.61c.53-.29,1.17-.37,1.71-.66a1.49,1.49,0,0,1,1.6,0,3.4,3.4,0,0,0,1.26.57,4.14,4.14,0,0,1,2.46,1.18c.9.81,1.78,1.65,2.7,2.45a2.37,2.37,0,0,0,3.13.29,10.41,10.41,0,0,0,2.63-2.35c4-5.65,5.71-11.76,3.27-18.58-.15-.39-.2-.65.27-.94.69-.41.7-1.2.07-1.45a3.12,3.12,0,0,1-1.87-2c-.44-1.45-.73-3-1.11-4.43a1.54,1.54,0,0,0-.34-.73c-1.15-1.11-2.3-2.22-3.49-3.29-.87-.78-1.76-1.52-2.68-2.22a1.37,1.37,0,0,0-2,.17c-.48.47-1,.94-1.41,1.44-1,1.15-2.05,2.33-3.07,3.49a.72.72,0,0,1-1.24,0c-.64-.71-1.27-1.43-1.92-2.14-.83-.91-1.64-1.86-2.51-2.74a1.39,1.39,0,0,0-2.14-.21,17.94,17.94,0,0,0-2.1,1.7c-1.19,1.11-2.3,2.31-3.53,3.38a2.59,2.59,0,0,0-.91,1.68,28.36,28.36,0,0,1-.78,3.4,3.64,3.64,0,0,1-1.89,2.43c-.77.36-.88,1.06-.17,1.52.49.31.45.58.29,1A15,15,0,0,0,337.53,1001.19Z"/><path class="cls-1" d="M313.92,1010.39c3.34,1.19,5.05,4,7.1,6.12.24-.41.38-.93.71-1.11a1.19,1.19,0,0,1,1.07.29c1.85,1.77,3.66,3.58,5.47,5.39.7.69,1.35,1.44,2.09,2.08s1.66,1.2,2.47,1.82c1.28,1,2.56,2,3.82,3,.66.54,1.24,1.17,1.9,1.71a1.3,1.3,0,0,0,2-.2c.71-.8,1-.77,1.35.25s.61,2.19.94,3.28c.23.77.3.79,1.1.73,0,0,.06.1,0,.13-.62,1.17-.64,1.2.28,2.19,1.73,1.88,3.5,3.72,5.4,5.73.08-.44.14-.69.17-.95.22-2.58.44-5.16.68-7.74,0-.39.15-1.06.31-1.08a7,7,0,0,1,1.93.07c.29,0,.56.38.82.36.92-.07,1.07.46,1.08,1.18a10.93,10.93,0,0,0,.11,1.16l1.6-.2.38,7.29a.86.86,0,0,0,.3,0c1.87-1.11,3.74-2.2,5.57-3.37.35-.22.5-.77.73-1.17s.33-.87.64-1.1c1-.71,2-1.49,3.31-1.07.16,0,.39-.07.58-.13a26.57,26.57,0,0,0,6.81-4.12c2.93-2.16,5.81-4.4,8.71-6.6.29-.22.6-.4.86-.57.11,0,.18,0,.2.09.65,1,.63,1,1.64.36l10.42-6.28a1.45,1.45,0,0,1,.79-.23c-.43.45-.84.91-1.29,1.34-1.21,1.13-2.45,2.22-3.64,3.37a3.94,3.94,0,0,0-.6,1.11,7.12,7.12,0,0,0,1.28.27c.51,0,1-.11,1.64,0a7.64,7.64,0,0,1-.68.61c-4,3-8.05,6-12.14,8.89-2.69,1.91-5.5,3.67-8.27,5.48a3.61,3.61,0,0,0-1.73,2.79c-.08.75-.17,1.51-1,1.84a1.58,1.58,0,0,1-1.9-.44c-.47-.53-.85-.47-1.44-.07-3,2.05-6.07,4-9.11,6-.28.19-.53.4-.92.7q4.49,4.37,8.84,8.58c.13,0,.19,0,.23,0,1.56-1.24,1.6-1.29,2.95.14q3.15,3.32,6.16,6.76c1,1.11.92,1.28-.23,2.34l10.86,12.76-.12.3a5.81,5.81,0,0,1-1.58-.16,15.7,15.7,0,0,1-2.34-1.21.76.76,0,0,0-1.24.4c-.19.48-.28,1-.45,1.48-.07.2-.26.52-.35.5a.87.87,0,0,1-.61-.37c-.19-.36-.23-.8-.41-1.17s-.36-.8-.64-.9c-1.43-.48-2.27-1.68-3.3-2.63-5.34-4.92-10.65-9.88-16-14.82-.35-.32-.89-.73-1.26-.66-.67.13-.69.87-.74,1.47s0,1-.08,1.55c-.14,1.78-1.3,2.32-2.79,1.33L354,1065c0,.37,0,.66,0,1-.16,3.56-.31,7.13-.48,10.7a5,5,0,0,1-.06.54c-.09.54-.37.63-.82.35l-.83-.52c0,2,.06,3.78,0,5.57a9.4,9.4,0,0,1-1.5,5.09c-.06-.81-.16-1.62-.19-2.42q-.18-5.94-.32-11.89a1.58,1.58,0,0,0-.59-1.42c-.57-.41-.41-1-.32-1.57.12-.78.11-1.41-.9-1.52-.11,0-.26-.45-.24-.68.23-2.63.52-5.25.73-7.88a32.75,32.75,0,0,0,.05-3.57c0-1.18-.32-1.34-1.28-.69-1.3.88-2.56,1.83-3.84,2.76a8,8,0,0,1-3,1.38c-2.09.48-3.73,1.83-5.42,3.06-1.28.93-2.55,1.87-3.86,2.73a4.34,4.34,0,0,1-2.88.81c.38-.43.7-.76,1-1.12a.63.63,0,0,0,.09-.55.64.64,0,0,0-.55-.13,4.69,4.69,0,0,0-1.05.47c-1.05.61-2.09,1.24-3.13,1.86a1.57,1.57,0,0,1-1.61,0,1.34,1.34,0,0,0-1.11,0c-1.08.66-2.1,1.41-3.13,2.14-.3.21-.57.48-.86.72l0,.25,2.66.47a3.91,3.91,0,0,1,3.41-.39c-.54.45-1,.84-1.45,1.2l-10.42,8.08a3.11,3.11,0,0,1-2.95.29c-.66-.18-.7-.77-.16-1.22a2.69,2.69,0,0,0,1.17-1.87c-1.89.51-3.41,1.75-5.37,1.76.87-.8,1.75-1.58,2.59-2.39,4.71-4.52,9.93-8.43,15-12.46a29.22,29.22,0,0,1,4.33-2.54,15.73,15.73,0,0,0,4.13-2.86,2.76,2.76,0,0,1,.8-.6,8.32,8.32,0,0,0,3.34-3.26c.77-1.13,1.56-2.25,2.39-3.34a5.09,5.09,0,0,1,1.08-1c.92-.66,1.26-.61,2.07.19,1,1,1,1,2.33.44.59-.26,1.19-.51,1.77-.79a.64.64,0,0,0,.23-1.13c-2.43-2.72-4.85-5.44-7.31-8.14a1.39,1.39,0,0,0-1-.33,3.25,3.25,0,0,1-3.11-1.79,10.62,10.62,0,0,1-.78-1.34,7.34,7.34,0,0,0-3.13-3.43,17.27,17.27,0,0,1-2.18-1.61c-.69-.61-.61-1,.15-1.57.6-.4.41-.79,0-1.21-1.56-1.66-3.12-3.31-4.67-5-1.86-2-3.71-4-5.54-6.07a1.77,1.77,0,0,1-.48-.86,14,14,0,0,0-2.61-6.64A6.16,6.16,0,0,1,313.92,1010.39Z"/><path class="cls-1" d="M315.59,982c-1.7.48-2.75-.72-4.21-1.24a21,21,0,0,0,.82,2,17.71,17.71,0,0,0,5,5.85l.32.22c1.84,1.19,2.13,1.1,2.83-.93,0-.09.09-.18.2-.4a7,7,0,0,1,.32,4c-.12.48-.26,1-.41,1.42a11.56,11.56,0,0,0,.68,8.75c0,.09.09.19.12.28a1.09,1.09,0,0,1,0,.31,6.5,6.5,0,0,1-1.16-.79c-.81-.87-1.58-1.78-2.34-2.68-.31-.38-.58-.8-.86-1.2a4.47,4.47,0,0,0-3.06-1.92,24.52,24.52,0,0,1-2.8-.61,8.92,8.92,0,0,1-5.27-4.07,21.73,21.73,0,0,1-2.71-9.1c.51.73,1,1.5,1.52,2.2a6.64,6.64,0,0,0,3,2.23,4.72,4.72,0,0,0,1.31,0,5,5,0,0,0-.29-1.31,16.81,16.81,0,0,0-1.12-1.58,18.21,18.21,0,0,0-5.48-4.93,7.87,7.87,0,0,1-4-5.84,19,19,0,0,1,.11-4.94c.62-4.09,1.25-8.19,2.19-12.22a44.22,44.22,0,0,1,2.51-6.48,1.88,1.88,0,0,1,.65-.75,9.51,9.51,0,0,0,3.7-4.52c.18.8.37,1.5.49,2.21a1.06,1.06,0,0,1-.23.69,9.25,9.25,0,0,0-1.79,3.91,15.92,15.92,0,0,1-.75,2.1,6.8,6.8,0,0,0,0,4.56,7.68,7.68,0,0,0,.46,1.24,4.91,4.91,0,0,1,.48,3,1.63,1.63,0,0,0,.94,1.84,13,13,0,0,1,4.1,3.39c.3.38.62.74.93,1.12l.25-.12c0-.33.08-.67.11-1,.13-1.42.17-2.85.4-4.24a4.65,4.65,0,0,1,2.18-3.27c0,.44,0,.7-.08,1a7.45,7.45,0,0,0,1,4.86,19.43,19.43,0,0,1,2.54,5.46,15.67,15.67,0,0,1,.14,5.68c-.15-.11-.24-.15-.29-.23a8.22,8.22,0,0,0-5-3.13,21.84,21.84,0,0,1-3.09-1,6.24,6.24,0,0,1-3.59-4c-.15-.42-.34-.83-.51-1.25h-.28a7.65,7.65,0,0,0-.44,1.3,13.24,13.24,0,0,0,1,7,13.48,13.48,0,0,0,1.69,3.21,5.56,5.56,0,0,0,4.66,2.47A3.85,3.85,0,0,1,315.59,982Z"/><path class="cls-1" d="M364.55,1000.5c.31,2.94-1,4.9-2.8,6.62a1.9,1.9,0,0,1-1.15.52,7.06,7.06,0,0,0-4.67,1.81,1.27,1.27,0,0,1-1.95.07,7.05,7.05,0,0,0-4.87-1.89,2,2,0,0,1-1.12-.6,8,8,0,0,1-2.71-7.31,10.56,10.56,0,0,1,2.73-6.44,3,3,0,0,0,.62-1,4.48,4.48,0,0,1,4.14-3,1.6,1.6,0,0,0,1.21-.52,1.34,1.34,0,0,1,1.94,0,2.06,2.06,0,0,0,1,.47c2,.23,3.55,1,4.26,3.06a2.45,2.45,0,0,0,.52.86A10,10,0,0,1,364.55,1000.5Z"/><path class="cls-1" d="M622.06,1006.4a6.87,6.87,0,0,0,5.54,2.38c2.49,0,5,.17,7.45.36a3.06,3.06,0,0,1,1.65.76,18.7,18.7,0,0,1,1.9,2.16,1.56,1.56,0,0,1,.29.67c1.4,6.61,2.84,13.22,4.17,19.84.63,3.18,1.07,6.39,1.59,9.59a5.65,5.65,0,0,0,1.55,3.32c.59.57.47,1.08.12,1.7q-3,5.29-6,10.6c-.48.86-.91,1.75-1.44,2.78a4.78,4.78,0,0,1-.26-.54,29.06,29.06,0,0,0-10.58-14.25c-1.31-1-1.48-1-2.08.57a18.32,18.32,0,0,0-.92,12c1.66,5.84,3,11.79,4.3,17.73a40.63,40.63,0,0,1,.55,6.36,3.93,3.93,0,0,1-1.23,3.18,20.09,20.09,0,0,0-1.52,1.8c-2.44,3-4.68,6.14-4.06,10.54a5.73,5.73,0,0,1-3.2-4.64,14.42,14.42,0,0,1,1.22-6.76,8.45,8.45,0,0,0-2-8.62,1.9,1.9,0,0,0-3.06,0,8.46,8.46,0,0,0-2,8.62,14.46,14.46,0,0,1,1.21,6.77A5.76,5.76,0,0,1,612,1098c.65-4.21-1.42-7.22-3.7-10.15a17.28,17.28,0,0,0-1.65-2,5.05,5.05,0,0,1-1.48-4.06c.08-5,1.25-9.73,2.45-14.5,1-3.79,2.07-7.55,2.92-11.37.82-3.64-.39-7-1.76-10.34-.29-.72-.78-.51-1.18-.16a66.65,66.65,0,0,0-5.11,4.51,25.38,25.38,0,0,0-6.14,10.53c-.14-.09-.26-.12-.31-.19-2.34-4.23-4.66-8.48-7-12.69a1.86,1.86,0,0,1,.15-2.45,6.52,6.52,0,0,0,1.24-2.76c.92-4.9,1.65-9.83,2.6-14.72s2.15-10,3.26-15c.31-1.43,2.91-3.46,4.35-3.54,2.91-.15,5.81-.4,8.72-.49,1.71-.05,2.59-1.31,3.74-2.2h.43c.32,1.49,1.52,2.23,2.61,3.06,1.44,1.08,1.47,1.09,2.89,0,1.09-.83,2.29-1.57,2.61-3.06Z"/><path class="cls-1" d="M705.08,1099.59l-.41,1.11-.43-1a7.85,7.85,0,0,0-3-3.89c-1.62-1-2.59-.89-3.58.77-1.85,3.08-3.58,6.23-5.26,9.41-3.55,6.76-7.4,13.31-12.55,19-2.77,3.06-5.53,6.15-8.1,9.37a29,29,0,0,0-6.19,19.75c.06,1.7.22,3.4.14,5.24a21.67,21.67,0,0,1-1.38-2c-1.53-2.71-2.12-5.71-2.76-8.71-1.46-6.89.9-12.76,4.6-18.31,2.06-3.08,4.12-6.15,6.23-9.2a81.66,81.66,0,0,0,10-20.56c.82-2.42,1.54-4.88,2.23-7.34a6.12,6.12,0,0,0-.66-4.65,11.78,11.78,0,0,1-1.22-6.49,68.27,68.27,0,0,0-2.58-21.12c-.83-3.15-1.44-6.37-2.15-9.55a3.81,3.81,0,0,0-.31-.79c-4.27-8-9.61-15.15-16.9-20.66a24.11,24.11,0,0,0-13.5-5.3,1.1,1.1,0,0,1-.79-.61c-.83-2.72-1.62-5.46-2.39-8.2s.58-4.62,1.93-6.59c.17-.25.91-.26,1.33-.14a60.54,60.54,0,0,1,12,5.26c7.23,3.8,13.4,9,19.24,14.6a29.89,29.89,0,0,0,8.28,5.76A12.85,12.85,0,0,1,689,1036a4,4,0,0,1,1.87,3.18c-2.33-.26-3.93.93-5.35,2.53a2.49,2.49,0,0,0-.62,2.45c1,3.69,1.79,7.41,2.86,11.06a206,206,0,0,0,8.4,23.63,73,73,0,0,0,4.27,8c1.88,3.18,4,6.21,4.66,10Z"/><path class="cls-1" d="M544.3,1039.21a3.58,3.58,0,0,1,1.35-2.78,9.56,9.56,0,0,1,2.13-1.4,33.46,33.46,0,0,0,10.09-7.23A81.13,81.13,0,0,1,580.41,1012c2.43-1.15,5-2,7.53-2.95a1,1,0,0,1,1.45.49c1.38,2.26,2.45,4.52,1.41,7.32-.86,2.33-1.4,4.77-2.13,7.15a1.08,1.08,0,0,1-.76.64c-5.89.29-10.78,2.93-15.19,6.59a62.87,62.87,0,0,0-15.08,19,7.54,7.54,0,0,0-.51,1.92c-.52,2.21-.92,4.46-1.54,6.64a75.86,75.86,0,0,0-3.26,21.15,3,3,0,0,0,0,.42,14.66,14.66,0,0,1-1.55,9.19c-.75,1.32-.42,2.79-.18,4.19a20.45,20.45,0,0,0,.71,2.9,100.68,100.68,0,0,0,14.8,29.32c1.66,2.22,3.07,4.63,4.53,7a21.11,21.11,0,0,1,2.68,17,69.09,69.09,0,0,1-2.39,7.16,11.06,11.06,0,0,1-1.39,2.12l-.27-.07c.05-.64.09-1.28.15-1.92.59-6.16.07-12.16-2.72-17.81a34.69,34.69,0,0,0-6.47-9.11,104.47,104.47,0,0,1-19.41-28.18,55.25,55.25,0,0,0-3.38-5.81c-1-1.5-1.88-1.6-3.44-.68a7.34,7.34,0,0,0-2.9,3.47c-.2.43-.38.88-.67,1.54a11.13,11.13,0,0,1,.68-7.49,23.79,23.79,0,0,1,2.17-4,76.76,76.76,0,0,0,8.47-17.19,236.88,236.88,0,0,0,8-25.66c.11-.45.2-.9.3-1.35.3-1.28.48-2.48-.65-3.55-1.31-1.26-2.63-2.42-4.6-2.31Z"/><path class="cls-1" d="M640.85,1162.13a20.28,20.28,0,0,1-5.65-4.42c-4.54-4.92-7-10.85-8.17-17.34a33.5,33.5,0,0,1,2.32-19.95c.14-.33.33-.64.45-1,.38-1,.91-1.21,2-.94a10.45,10.45,0,0,0,11.93-6.86,4.36,4.36,0,0,0-1.23-4.79c-1.4-1.28-3-1.2-4.67-.39a1.1,1.1,0,0,1-.51.12c2.13-3.14,3.92-6.53,7.12-8.79a1,1,0,0,0,.44-.73c-.29-5.67-1.38-11.11-4.93-15.75-2.06-2.68-4.6-4.63-8.29-4.87.76-4.18-.86-7.87-2.18-11.62a38.38,38.38,0,0,1-1.87-15.27c0-.21,0-.42.07-.63a1.36,1.36,0,0,1,.14-.28c.87,1.09,2,1.83,2.4,3.31a33.73,33.73,0,0,0,2.45,5.79,19.51,19.51,0,0,0,9.19,8.57c6.31,3.14,11.69,7.33,14.67,14a40.42,40.42,0,0,1,3.09,13.13c.59,6.77-.36,13.44-1.38,20.09-.32,2.07-.79,4.12-1.2,6.18-.09.45-.26.88-.42,1.42a2.43,2.43,0,0,0-2.82.07c-3.41,1.83-5.88,4.67-8.21,7.66-6.05,7.74-8.15,16.62-7.36,26.28A14.1,14.1,0,0,0,640.85,1162.13Z"/><path class="cls-1" d="M607.46,1048.77c0,2.52.11,5.07,0,7.61a34.22,34.22,0,0,1-2.38,10.15c-1.18,3.16-2.18,6.34-1.64,9.62a33.08,33.08,0,0,0-4.37,1.69,15.13,15.13,0,0,0-6,7,31.06,31.06,0,0,0-2.75,12,1.34,1.34,0,0,0,.34.91c1.45,1.54,3,3,4.38,4.6,1.08,1.29,1.94,2.76,2.93,4.19a13.83,13.83,0,0,0-2.87-.61,4.14,4.14,0,0,0-3.76,5.22c1.08,5,7.17,8.67,12.28,7.31a1.2,1.2,0,0,1,1.66.73,31.14,31.14,0,0,1,3.37,12.27,36.26,36.26,0,0,1-6.11,23.1,24.93,24.93,0,0,1-7.42,7.26,2.42,2.42,0,0,1-.78.34c2.64-3.75,3-8,2.82-12.34a43.59,43.59,0,0,0-1.83-10.06c-2-6.87-6.14-12.29-11.45-16.89a12.59,12.59,0,0,0-3.08-1.88,7.89,7.89,0,0,0-2.37-.22c-.28-1.2-.72-2.77-1-4.36-1.13-6.68-2.21-13.36-2-20.16.2-6.18,1.16-12.19,4.16-17.72a22.6,22.6,0,0,1,7.25-8.13,77.46,77.46,0,0,1,7.44-4.55,19.52,19.52,0,0,0,8.93-9.41,32.81,32.81,0,0,0,1.38-3.24C605.11,1051.5,605.56,1049.73,607.46,1048.77Z"/><path class="cls-1" d="M581.37,1067.82c-1.3-5.63.49-10.62,3.07-15.49.85,3.16,1.63,6.31,3.55,9.13C584.57,1062.39,582.88,1065,581.37,1067.82Z"/><path class="cls-1" d="M650.78,1052.51c2.5,3.43,4.6,12,2.9,15.42-1.41-2.93-3.08-5.54-6.16-6.37C648.63,1058.49,649.72,1055.45,650.78,1052.51Z"/><path class="cls-1" d="M902,1049c-1.68-2.55-2.44-5.1-1.4-7.9a2.31,2.31,0,0,0-.21-2.34,10.54,10.54,0,0,1-.72-1.47c-.71-1.52-.91-1.6-2.4-.69A10.26,10.26,0,0,0,893,1042c-.71,1.82-1.29,3.7-2,5.8a7.7,7.7,0,0,1-2.39-4.81c-1.74.44-1.93,1.52-.8,4.55a1.61,1.61,0,0,1-2.27-.71,17,17,0,0,1-2.87-9.63c.1-6.21.14-12.43.52-18.62a210,210,0,0,0-.35-26.55c-.26-3.84-.16-7.72-.17-11.58a21.54,21.54,0,0,1,.32-2.87,1.67,1.67,0,0,1,2-1.65c3.3.19,6.62.21,9.93.38a1.52,1.52,0,0,0,1.58-.87c4.52-7.27,3-13.36-2.28-20.27-1.4-1.83-2.94-3.56-4.37-5.37-4.94-6.26-5-11.74-.22-18.1a40.74,40.74,0,0,1,12.08-10.31,6.18,6.18,0,0,1,.71-.25c-.51,1-.89,1.76-1.29,2.52-1.41,2.69-2.65,5.43-2.69,8.56a13.49,13.49,0,0,0,4.6,10.39c2.49,2.3,5.22,4.33,7.89,6.43s5.31,4.12,7,7.1a10.07,10.07,0,0,1,1.29,7.39c-1,4.59-2.06,9.17-3.09,13.75-.06.28-.11.56-.2,1,2,.23,3.89.46,5.79.65a1.33,1.33,0,0,0,.79-.32c7.07-5.48,11.62-12.46,12.66-21.5a14.86,14.86,0,0,0-2.2-9.27A25,25,0,0,1,930,936c.12,0,.24,0,.25,0,1.46,3.12,4.25,4.76,7.06,6.39,2.42,1.41,4.91,2.74,7.28,4.24,7.63,4.85,11.69,12,13.32,20.76a3.26,3.26,0,0,1,0,.63c-.67-.78-1.19-1.48-1.81-2.07a3.82,3.82,0,0,0-1.76-1.16c-1.88-.24-2.76-1.64-3.87-2.85a17.31,17.31,0,0,0-2.2-1.69c.2,2.6.43,4.75.51,6.9a59.86,59.86,0,0,1-1.28,16.4c-.55,2.24-.58,2.26,1.46,3.39,6.65,3.67,11.56,9.07,15.55,15.43,1.41,2.24,2.9,4.43,4.49,6.54,3.29,4.37,7.82,6.43,13.2,6.79l2.48.14a4.71,4.71,0,0,1-.69.71,28.25,28.25,0,0,1-20.08,4.19,17.22,17.22,0,0,1-5.1-2c-1.68-.86-3.18-2-4.83-3a21.67,21.67,0,0,0-11.67-2.45c-3.92.16-6.77,2.23-8.94,5.34a27.89,27.89,0,0,0-3.83,8.85c-.17.65-.33,1.29-.49,1.88a21.74,21.74,0,0,0-3.39-.36c-2,.08-3,1.44-2.3,3.26,3.61,9.38,8.7,17.69,17.37,23.3,1,.67,2.18,1.2,3.27,1.8l0,.4a23.23,23.23,0,0,1-5,.65c-3.66-.29-7.3-.93-11-1.38a2.1,2.1,0,0,0-1.44.23,30.18,30.18,0,0,1-15.28,6.28,24.59,24.59,0,0,1-5.43.06c.88-.58,1.77-1.15,2.64-1.74a8.54,8.54,0,0,0,.88-.71c3.74-3.2,4.17-5.88,1.39-9.93a20.75,20.75,0,0,0-3.68-4.09c-2.11-1.78-3.69-1.27-4.79,1.26C902.22,1048.54,902.14,1048.68,902,1049Zm17.81-48.38c-.89,0-1.55,0-2.21,0-7.91.62-14.67,4.09-21,8.52-.19.13-.48.41-.44.54.38,1.22.47,3,1.31,3.52,1.8,1.06,2.61,2.62,3.49,4.28a2.35,2.35,0,0,0,2.69,1.39c3.74-.82,7.07-2.19,9.07-5.84a27.34,27.34,0,0,1,3.8-5.11c.83-.92,1.82-1.49,1.59-3a5.29,5.29,0,0,1,.75-2.35C919,1002,919.38,1001.42,919.77,1000.66Z"/><path class="cls-1" d="M833.2,935.9c-.05,4-.6,7.86-2.67,11.28-3.11,5.12-3.15,10.41-1.22,15.85a32.72,32.72,0,0,0,10.83,15.15,2.89,2.89,0,0,0,2.44.64c1.52-.25,3.06-.4,4.7-.61-.68-2.78-1.35-5.45-2-8.14q-.75-3.37-1.37-6.78a9.6,9.6,0,0,1,1.95-8.08,50.47,50.47,0,0,1,5.81-5.7c2.32-2,4.89-3.69,7.22-5.68,3.61-3.09,6-6.86,5.88-11.86a18.29,18.29,0,0,0-2.43-7.87c-.48-.91-1-1.82-1.5-2.86.3,0,.43,0,.52,0,5.09,3,9.74,6.59,13.05,11.6,2.56,3.86,3.86,8,1.68,12.47a45.13,45.13,0,0,1-4.2,6.24c-1.74,2.41-3.76,4.64-5.31,7.16-3.5,5.65-3.38,11.36.34,16.91a1.94,1.94,0,0,0,1.46.56q5-.08,10.05-.31c1.06,0,1.63.38,1.74,1.35a39.26,39.26,0,0,1,.47,5.5c-.21,6.67-.62,13.34-.8,20-.11,4,0,8,.13,12.07.18,7.55.46,15.1.6,22.66a16.82,16.82,0,0,1-3,9.47,1.5,1.5,0,0,1-1.8.69c0-1.41.09-2.73,0-4,0-.29-.63-.54-.81-.68l-2.31,4.73-.5-.08c-.22-.65-.4-1.31-.67-1.93a50.31,50.31,0,0,0-2.83-6.4,12,12,0,0,0-3.23-2.89c-.71-.54-1.42-.46-1.68.59a1.92,1.92,0,0,1-.21.46,5.18,5.18,0,0,0-.64,4.8c.77,2.38-.2,4.61-1.64,6.81-.24-.49-.4-.85-.57-1.2-.88-1.77-2.32-2.28-3.92-1.13a22.42,22.42,0,0,0-3.51,3.38,20,20,0,0,0-1.81,2.86A5,5,0,0,0,852,1059a15.33,15.33,0,0,0,5.49,4.49l0,.34c-1.8-.1-3.61-.07-5.39-.31a30,30,0,0,1-15.37-6.36,1.79,1.79,0,0,0-1.34-.15c-4.35,1-8.71,1.84-13.2,1.22-.92-.12-1.83-.4-3-.66a5,5,0,0,1,.61-.49c6.92-3.12,11.62-8.59,15.43-14.88a78.56,78.56,0,0,0,4.48-9c1.34-3-.12-4.72-3.41-4.19a18.66,18.66,0,0,0-1.83.48c-.2-.68-.39-1.35-.57-2-1.1-3.9-2.49-7.66-5.34-10.69a10.57,10.57,0,0,0-7.68-3.53,22,22,0,0,0-13.48,3.67c-2.46,1.69-4.93,3.46-8,3.84-7.22.91-14-.29-20.18-4.38a3.88,3.88,0,0,0-.45-.24l.12-.28c1.39-.14,2.78-.25,4.16-.44a16,16,0,0,0,11.09-6.26c2.15-2.84,4.1-5.84,6.06-8.81a40.67,40.67,0,0,1,15.67-14.21,6,6,0,0,0,.62-.41c-2.33-8.25-2.31-16.59-1.59-25.28a10.31,10.31,0,0,0-1.86,1.35,9.31,9.31,0,0,1-4,3c-1.34.48-2.36,1.86-3.52,2.84a2.51,2.51,0,0,1,0-.54c1.81-9.69,6.82-17.11,15.49-22,2-1.14,4.11-2.26,6.14-3.45C829.55,940.28,831.89,938.67,833.2,935.9Zm10.51,64.69c0,.23-.05.32,0,.39.79,1.72,2,3.32,1.54,5.43,0,.14.24.42.42.55a14.25,14.25,0,0,1,4.71,5.63c1.63,3.28,4.37,5,7.7,5.95,2.86.86,3.6.48,5-2.17a7.29,7.29,0,0,1,2.12-2.52,2.86,2.86,0,0,0,1.37-1.78,9.55,9.55,0,0,1,.53-1.67.9.9,0,0,0-.46-1.33c-2.93-1.69-5.77-3.58-8.8-5.08A31.61,31.61,0,0,0,843.71,1000.59Z"/><path class="cls-1" d="M966.77,790.91V774.19a6.5,6.5,0,0,0,.5-1.35c3.29-25.22,16.1-44.39,37.3-57.9,16.5-10.51,34.37-15.43,53.95-10.79,38.5,9.1,72.17,46.47,61.22,97.4-2.4,11.19-7,21.34-15.19,29.57-2.92,3-6.16,5.6-9.55,8.65V825.91c-5.35,3.65-10.14,7.19-15.2,10.28-5.5,3.37-11.19,6.41-15.77,11.11a20.53,20.53,0,0,1-3.79,2.87,29.34,29.34,0,0,1-34-1.44c-3.37-2.61-6.47-5.58-10-8-7.22-5.05-14.61-9.87-21.93-14.76-.13-.09-.37,0-.76,0-1.9,4.52,2.19,9.51-.6,13.83-2-2.15-3.81-4.31-5.83-6.3-1.6-1.59-3.6-2.8-5.1-4.48a55.83,55.83,0,0,1-12.25-23.59C968.56,800.65,967.76,795.75,966.77,790.91Zm59.65-12.4c4-7.12,7.87-14,11.7-21a3.45,3.45,0,0,0-2.65-4.93c-.91-.16-1.77-.58-2.68-.75s-2.28-.62-2.85-.18-.78,1.85-.83,2.84a25,25,0,0,0,.35,3.72c-4.53-1.93-6.15-4.58-7.86-11.31-.91-3.61-.36-6.68,2.24-9.35,5.89-6,11.65-12.3,20.15-14.82a6.52,6.52,0,0,0,1.24-.77l11.89-7.11L1054,721l.62.91,9.28-2.79a58.82,58.82,0,0,0-3.65,5.5,28.25,28.25,0,0,0-1.52,4.8,31.72,31.72,0,0,0,5.14.21c3.38-.39,6.72-1.06,10.25-1.63l-6.94,7.31c-1.65,1.73-1.39,3.47.33,4.84,1.91,1.52,4,2.78,6.14,4.2-.85.23-1.7.44-2.55.7-6.83,2.11-10,6.46-10.09,13.58,0,3.27-.35,6.54-.6,9.81-.27,3.62-.6,7.23-1,11.62a56.59,56.59,0,0,0,5-3c12.85-9.86,18-22.93,15.47-38.85-2.92-18.5-19.45-32.21-37.19-31.18-16.27,1-29.62,12.35-33.58,28.69C1005.09,752.4,1012.1,770.07,1026.42,778.51Zm58-38.81c-.07.17-.2.34-.19.49,0,1,.16,2,.19,3,.54,16.24-5.55,29.26-18.93,38.61-5.87,4.1-6,4-4.09,11.15a38.55,38.55,0,0,0,2.26,7.09c1.49,3.05,3.44,5.87,5.23,8.84C1086.35,795.14,1094.9,756,1084.43,739.7Zm-63.49,70.08a23.74,23.74,0,0,0,1.15-4.66c.11-3.67-.38-7.37,0-11,.37-3.81,1.43-7.54,2.22-11.48A42.64,42.64,0,0,1,1008,764.28c-3.68-7.8-4.57-16-3.68-25.11C993.5,757.24,1003.07,798.19,1020.94,809.78Z"/><path class="cls-1" d="M1044.25,681.23c1.83,5.09,3.62,10,5.45,15.11h-10.9C1040.59,691.38,1042.4,686.37,1044.25,681.23Z"/><path class="cls-1" d="M1029.48,698.09l-8.23,2.63V687.2Z"/><path class="cls-1" d="M1067.26,688.17v12.52l-8.23-2.56,7.61-10.16Z"/><path class="cls-1" d="M1010.86,705.32l-5.26,3.28-2.54-9.14Z"/><path class="cls-1" d="M1082.93,708.61l-5.22-3.25,7.71-5.94C1084.5,702.82,1083.77,705.53,1082.93,708.61Z"/><path class="cls-1" d="M1127.78,464.67c-.66-1.19-1.34-2.36-2-3.56a51.43,51.43,0,0,0-10.28-14c-4.49-4.16-9.64-6.82-15.91-6.77-5.66.06-10.37,2.45-14.49,6.14a22.26,22.26,0,0,0-5.92,8.32,2.15,2.15,0,0,1-.18.29c-1.35-3.34-2.52-6.78-4.13-10s-3.65-6.23-5.49-9.3l1.82.26a21,21,0,0,0,14.33-3.55c6.35-4.08,10.78-9.85,14.2-16.49.27-.51.51-1,.77-1.55,0-.05.11-.07.27-.18.26.25.58.49.84.78,10,11.24,18.34,23.54,23.4,37.82,1.14,3.22,1.7,6.64,2.53,10,.06.26.14.51.21.76Z"/><path class="cls-1" d="M960.71,464.05c.43-2.05.8-4.12,1.31-6.15a80,80,0,0,1,9-21,128.4,128.4,0,0,1,15-20.7c.56-.62,1.15-1.21,1.84-1.92.65,1.25,1.2,2.36,1.8,3.45a42.67,42.67,0,0,0,10.5,12.86,23.38,23.38,0,0,0,12.36,5.57,44.32,44.32,0,0,0,6-.15,6.36,6.36,0,0,0,.68-.09c-1.84,3.07-3.89,6.06-5.49,9.27s-2.76,6.63-4.12,10a5.36,5.36,0,0,1-.31-.54c-3.82-7.89-9.9-12.87-18.67-14.06-4.93-.66-9.47.86-13.6,3.57-5,3.26-8.62,7.74-11.7,12.73-1.37,2.22-2.55,4.57-3.83,6.85a9.13,9.13,0,0,1-.71,1Z"/><path class="cls-1" d="M1071.61,473.52c-.11,9.84-2.3,19.08-8,27.25a26.16,26.16,0,0,1-11,9.43c-8.24,3.56-15.73,2-22.5-3.63a34.12,34.12,0,0,1-10.28-15.42,51.11,51.11,0,0,1,.84-37.26,32.56,32.56,0,0,1,10.69-14.27c8.73-6.48,19.34-5.93,27.42,1.38,5.6,5.05,9,11.43,11,18.62A51.36,51.36,0,0,1,1071.61,473.52Zm-27.44,19.3a26.82,26.82,0,0,0,12.65-3.7,21.24,21.24,0,0,0,7.41-6.4c1.63-2.43,1.61-4.18,0-6.58a12.63,12.63,0,0,0-1-1.28,23.8,23.8,0,0,0-6.31-4.94c-6.52-3.65-13.31-5-20.51-2.14-4.73,1.87-9,4.41-12.23,8.49-1.83,2.34-1.8,3.88-.06,6.28a22.37,22.37,0,0,0,5.93,5.38A27.12,27.12,0,0,0,1044.17,492.82Z"/><path class="cls-1" d="M1009.67,493.21a67.34,67.34,0,0,0,8.42,17.75c-3.38.35-4,2.83-4.11,5.37a74.08,74.08,0,0,0,.19,9.77,245.28,245.28,0,0,0,3.41,26.59,194.1,194.1,0,0,0,13,41.86.9.9,0,0,1,0,.72,10.59,10.59,0,0,1-1.28-1.41c-2.42-3.93-5.06-7.75-7.16-11.84a459.67,459.67,0,0,1-24.54-57.86c-1.08-3.07-1.89-6.24-2.86-9.35a1.59,1.59,0,0,1,.69-2c1.61-1.19,3.18-2.42,4.77-3.65,5.19-4,8.52-9.07,9.32-15.67C1009.59,493.4,1009.64,493.31,1009.67,493.21Z"/><path class="cls-1" d="M1057.68,595.11c.34-.8.67-1.6,1-2.39a190.48,190.48,0,0,0,13.78-49.36c1-7.2,1.6-14.46,2.2-21.71a33.81,33.81,0,0,0-.38-7.1,3.73,3.73,0,0,0-3.89-3.59,60.7,60.7,0,0,0,8.33-18.2c.44,1.83.71,3.37,1.16,4.84,1.51,4.91,4.65,8.63,8.65,11.69,1.56,1.2,3.12,2.41,4.69,3.59a1.33,1.33,0,0,1,.55,1.67c-1.57,4.88-3,9.83-4.71,14.65a480.91,480.91,0,0,1-20.76,49,103.72,103.72,0,0,1-8.34,14.59c-.63.87-1.37,1.66-2,2.49Z"/><path class="cls-1" d="M1106.09,531.36c.21-1.94.45-3.88.61-5.82.74-8.89.35-17.68-2.62-26.19-2.32-6.63-5.93-12.37-11.92-16.33a15.43,15.43,0,0,0-7.65-2.82,28.4,28.4,0,0,0-3.34.2,82.65,82.65,0,0,0-.29-16.4c.35.4.69.8,1,1.19,3.71,4.16,8.35,7,13.27,9.47a62.29,62.29,0,0,0,19.82,6.21c.73.09.9.45.87,1.07-.24,3.83-.27,7.68-.75,11.48a201.52,201.52,0,0,1-7.52,34.32c-.36,1.16-.82,2.3-1.24,3.45a1.66,1.66,0,0,1-.13.27Z"/><path class="cls-1" d="M1007.86,464.19a70.66,70.66,0,0,0-.5,16.32,27.6,27.6,0,0,0-5,0c-4.32.85-7.74,3.36-10.69,6.53-4.68,5-7.27,11.1-8.74,17.7-1.89,8.52-1.72,17.09-.58,25.67l.12.81c0,.06,0,.13-.09.45-.25-.59-.45-1-.6-1.39a184.07,184.07,0,0,1-6.8-26.76A111.43,111.43,0,0,1,972.65,484c0-.92-.26-2.09.19-2.67s1.65-.49,2.53-.65a63.24,63.24,0,0,0,26.84-11.43C1004.2,467.8,1005.93,466,1007.86,464.19Z"/><path class="cls-1" d="M1036.75,425.32a29.46,29.46,0,0,0-11.17,4.9,33.27,33.27,0,0,0-1.37-17.88A27.21,27.21,0,0,1,1036.75,425.32Z"/><path class="cls-1" d="M1064.31,412.27a33.27,33.27,0,0,0-1.34,17.87,29.35,29.35,0,0,0-11.16-4.89A26.9,26.9,0,0,1,1064.31,412.27Z"/><path class="cls-1" d="M1037.89,478.72a6.31,6.31,0,1,1,6.26,6.31A6.28,6.28,0,0,1,1037.89,478.72Z"/><path class="cls-1" d="M875.52,316.72l-6.41,5.19L865.45,313l-8.53,4.14-1.32-7.33L826,333.94c1.73-2.92,3.6-5.75,5.45-8.58s3.75-5.75,5.62-8.62,3.73-5.72,5.6-8.57l5.64-8.65-9.72-.5c1.29-3,2.65-6,4-9l-9.17-3.1,5.76-6.91-26.29-3.23-26.08-3.22c0-.07,0-.09,0-.11a.09.09,0,0,1,0,0l.19-.05,51.32-5.91a14,14,0,0,0-1.23-1.62c-.42-.53-.85-1.06-1.28-1.58l-1.28-1.58L833.17,261l8.85-3.67-4.14-8.55,8.7-1,0-.06s0,0,0-.06a.56.56,0,0,0-.09-.17l-19.75-27.05a.13.13,0,0,1,0-.06s0,0,.05,0h0a.67.67,0,0,1,.12.06L855.35,240h.14a11.11,11.11,0,0,0,.13-1.83c0-.64.07-1.27.11-1.91s.07-1.31.1-2,0-1.27.08-1.91.07-1.25.12-2l9,4c1.07-3.05,2-6.08,3.11-9.19l6.9,5.76c2.16-17.57,4.3-35,6.44-52.49h.15c2,17.21,4,34.42,6,51.76L894,225l3.67,8.86,8.53-4.14,1.54,9.71.1,0a.06.06,0,0,0,.06,0,.53.53,0,0,0,.17-.08l25.5-16.81h.06s0,0,0,0a0,0,0,0,1,0,0l-.09.17q-8.67,12.16-17.32,24.34l0,.06v.15c2.74.23,5.5.29,8.34.53-1.33,3-2.63,6-4,9l9.15,3.1c-.45.63-1,1.17-1.41,1.73l-1.42,1.71-1.43,1.71L924,266.92l52.37,6.45c0,.05,0,.07,0,.09a.09.09,0,0,1,0,.05l-.12,0L925,279.46s0,0-.09.06a7.45,7.45,0,0,0,1,1.29c.32.42.66.82,1,1.23l1,1.29,1,1.23,1.08,1.35-8.84,3.66c1.34,2.85,2.74,5.65,4.12,8.55L914.88,300c2.89,4.86,5.77,9.66,8.65,14.46s5.76,9.64,8.6,14.5c-1.19-.86-2.3-1.82-3.43-2.75l-3.42-2.84-3.42-2.84c-1.15-1-2.28-1.9-3.43-2.84L915,314.8,911.59,312l-3.49-2.9c-.34,2.54-.67,5-1,7.47l-9-4c-1,3.07-2.05,6.09-3.1,9.2l-6.9-5.76c-2.16,17.59-4.3,35.05-6.45,52.51h-.13C879.5,351.28,877.53,334.06,875.52,316.72Zm6.09-82a38.67,38.67,0,1,0,38.55,38.69A38.64,38.64,0,0,0,881.61,234.77Z"/><path class="cls-1" d="M847,273.42a34.56,34.56,0,1,1,34.57,34.63A34.58,34.58,0,0,1,847,273.42Z"/></g><g id="cut"><path class="cls-2" d="M617.69,1270.46a277.57,277.57,0,0,1-184.55-69.91q-12.5,1.14-25.15,1.15a277.3,277.3,0,0,1-86.53-13.84c-96.54-31.67-164.12-111.54-184.89-204.28a279.33,279.33,0,0,1-114-348.13A281.81,281.81,0,0,1,4.11,570.81,278.23,278.23,0,0,1,136.57,287.42c20.77-92.74,88.35-172.6,184.88-204.27A277.3,277.3,0,0,1,408,69.31q12.66,0,25.18,1.15a278,278,0,0,1,368.72,0q12.58-1.16,25.34-1.16a277.3,277.3,0,0,1,86.53,13.84c96.54,31.67,164.12,111.54,184.88,204.27A279.37,279.37,0,0,1,1212.71,635.5a281.35,281.35,0,0,1,18.44,64.7,278.29,278.29,0,0,1-132.52,283.38c-20.76,92.74-88.34,172.6-184.87,204.27a277.23,277.23,0,0,1-86.55,13.85q-12.74,0-25.33-1.16a278.09,278.09,0,0,1-184.19,69.92Z"/><path class="cls-3" d="M804.45,872.6a120.83,120.83,0,0,0-18.85,13.79,299.67,299.67,0,0,1-161.42,51.22,119.26,119.26,0,0,0-14.4,0A299.59,299.59,0,0,1,444.68,883q-4.85-3.94-10.11-7.43c-72.09-55.27-118.67-142.3-118.67-240,0-98.84,47.62-186.75,121.1-241.91,2-1.38,3.94-2.8,5.84-4.29A299.7,299.7,0,0,1,614.6,333.37c.89,0,1.78.05,2.66.05s1.51-.05,2.26-.07A299.57,299.57,0,0,1,787,385.58a121.82,121.82,0,0,0,15.84,11.57,303.5,303.5,0,0,1,99.1,137.29,122.44,122.44,0,0,0,5.7,17.74A303.18,303.18,0,0,1,908,717.63a121.49,121.49,0,0,0-6.44,20A303.51,303.51,0,0,1,804.45,872.6Z"/></g></svg>